<?xml version="1.0" encoding="UTF-8" standalone="no"?>
<!-- Created with Inkscape (http://www.inkscape.org/) -->

<svg
   xmlns:dc="http://purl.org/dc/elements/1.1/"
   xmlns:cc="http://creativecommons.org/ns#"
   xmlns:rdf="http://www.w3.org/1999/02/22-rdf-syntax-ns#"
   xmlns:svg="http://www.w3.org/2000/svg"
   xmlns="http://www.w3.org/2000/svg"
   xmlns:xlink="http://www.w3.org/1999/xlink"
   xmlns:sodipodi="http://sodipodi.sourceforge.net/DTD/sodipodi-0.dtd"
   xmlns:inkscape="http://www.inkscape.org/namespaces/inkscape"
   width="210mm"
   height="297mm"
   viewBox="0 0 210 297"
   version="1.1"
   id="svg8"
   sodipodi:docname="Setup Diagram.svg"
   inkscape:version="0.92.3 (2405546, 2018-03-11)">
  <defs
     id="defs2">
    <meshgradient
       inkscape:collect="always"
       id="meshgradient4683"
       gradientUnits="userSpaceOnUse"
       x="-9.0069075"
       y="52.724682">
      <meshrow
         id="meshrow4685">
        <meshpatch
           id="meshpatch4687">
          <stop
             path="c 88.1153,0  176.231,0  264.346,0"
             style="stop-color:#ffffff;stop-opacity:1"
             id="stop4689" />
          <stop
             path="c 0,15.457  0,30.9139  0,46.3709"
             style="stop-color:#8200c8;stop-opacity:1"
             id="stop4691" />
          <stop
             path="c -88.1153,0  -176.231,0  -264.346,0"
             style="stop-color:#ffffff;stop-opacity:1"
             id="stop4693" />
          <stop
             path="c 0,-15.457  0,-30.9139  0,-46.3709"
             style="stop-color:#8200c8;stop-opacity:1"
             id="stop4695" />
        </meshpatch>
      </meshrow>
    </meshgradient>
  </defs>
  <sodipodi:namedview
     id="base"
     pagecolor="#ffffff"
     bordercolor="#666666"
     borderopacity="1.0"
     inkscape:pageopacity="0.0"
     inkscape:pageshadow="2"
     inkscape:zoom="2.2615575"
     inkscape:cx="396.85039"
     inkscape:cy="955.17306"
     inkscape:document-units="mm"
     inkscape:current-layer="layer2"
     showgrid="false"
     showguides="true"
     inkscape:guide-bbox="true"
     inkscape:window-width="1920"
     inkscape:window-height="1217"
     inkscape:window-x="-8"
     inkscape:window-y="-8"
     inkscape:window-maximized="1">
    <sodipodi:guide
       position="104.51042,289.90774"
       orientation="1,0"
       id="guide3732"
       inkscape:locked="false" />
    <sodipodi:guide
       position="134.74851,259.85865"
       orientation="0,1"
       id="guide4701"
       inkscape:locked="false" />
    <sodipodi:guide
       position="75.028269,259.85865"
       orientation="1,0"
       id="guide4703"
       inkscape:locked="false" />
    <sodipodi:guide
       position="134.35514,236.95884"
       orientation="1,0"
       id="guide4705"
       inkscape:locked="false" />
    <sodipodi:guide
       position="46.68006,86.36756"
       orientation="0,1"
       id="guide4707"
       inkscape:locked="false" />
    <sodipodi:guide
       position="45.168155,82.587798"
       orientation="0,1"
       id="guide4709"
       inkscape:locked="false" />
    <sodipodi:guide
       position="39.309523,182.37352"
       orientation="0,1"
       id="guide4713"
       inkscape:locked="false" />
    <sodipodi:guide
       position="82.20982,201.27233"
       orientation="1,0"
       id="guide4715"
       inkscape:locked="false" />
    <sodipodi:guide
       position="92.415177,269.30804"
       orientation="1,0"
       id="guide4717"
       inkscape:locked="false" />
    <sodipodi:guide
       position="27.592261,77.485121"
       orientation="0,1"
       id="guide4725"
       inkscape:locked="false" />
    <sodipodi:guide
       position="37.041667,177.8378"
       orientation="0,1"
       id="guide4735"
       inkscape:locked="false" />
    <sodipodi:guide
       position="9.8273807,283.67114"
       orientation="1,0"
       id="guide4831"
       inkscape:locked="false" />
    <sodipodi:guide
       position="14.930059,281.02531"
       orientation="1,0"
       id="guide4833"
       inkscape:locked="false" />
    <sodipodi:guide
       position="20.221726,272.14287"
       orientation="1,0"
       id="guide4835"
       inkscape:locked="false" />
  </sodipodi:namedview>
  <metadata
     id="metadata5">
    <rdf:RDF>
      <cc:Work
         rdf:about="">
        <dc:format>image/svg+xml</dc:format>
        <dc:type
           rdf:resource="http://purl.org/dc/dcmitype/StillImage" />
        <dc:title></dc:title>
      </cc:Work>
    </rdf:RDF>
  </metadata>
  <g
     inkscape:label="Layer 1"
     inkscape:groupmode="layer"
     id="layer1">
    <path
       style="fill:none;stroke:#000000;stroke-width:0.26458332px;stroke-linecap:butt;stroke-linejoin:miter;stroke-opacity:1"
       d="m 75.028271,16.541661 v 20.5997 h 59.720239 v -20.5997 z"
       id="path3738"
       inkscape:connector-curvature="0" />
    <path
       style="fill:#ff0000;stroke:#000000;stroke-width:0.26458332px;stroke-linecap:butt;stroke-linejoin:miter;stroke-opacity:1"
       d="M 82.209822,22.02231 V 37.141361 H 92.415176 V 22.02231 Z"
       id="path3752"
       inkscape:connector-curvature="0" />
    <path
       style="fill:#65ff0f;stroke:#000000;stroke-width:0.26458332px;stroke-linecap:butt;stroke-linejoin:miter;stroke-opacity:1;opacity:0;fill-opacity:0.94117647"
       d="M 99.974698,37.141361 H 109.99107 V 22.02231 H 99.974698 Z"
       id="path3754"
       inkscape:connector-curvature="0" />
    <path
       style="fill:#65ff00;stroke:#000000;stroke-width:0.26458332px;stroke-linecap:butt;stroke-linejoin:miter;stroke-opacity:1;fill-opacity:1"
       d="M 99.974698,37.141361 V 22.0223 l 10.016372,10e-6 v 15.119051 z"
       id="path4561"
       inkscape:connector-curvature="0" />
    <path
       style="fill:#8200c8;stroke:#000000;stroke-width:0.26458332px;stroke-linecap:butt;stroke-linejoin:miter;stroke-opacity:1;fill-opacity:1"
       d="m 117.92857,22.02231 v 15.119051 h 9.44941 V 22.02231 Z"
       id="path4563"
       inkscape:connector-curvature="0" />
    <path
       style="opacity:0;fill:#8200c8;fill-opacity:1;stroke-width:0.26458332"
       id="path4565"
       d="m 106.32518,37.547277 c -0.0177,1.386004 -0.009,2.772151 -0.002,4.1582 -0.006,0.774715 0.006,1.547336 0.0523,2.320541 0.0504,1.040865 0.12375,2.079498 0.20582,3.118268 0.14737,1.125556 0.22498,2.255327 0.26345,3.389283 0.04,1.372428 0.0405,2.745518 0.0436,4.118393 -0.0176,1.342303 0.0427,2.683981 0.14658,4.021868 0.17509,1.880092 0.29623,3.764325 0.36517,5.651159 0.0456,1.712724 0.0497,3.426229 0.0519,5.139459 0.0116,2.202651 -0.0729,4.404911 -0.15575,6.605715 -0.0183,0.475205 -0.0374,0.95038 -0.0549,1.425617 -0.0534,1.454092 -0.11446,2.904019 -0.25168,4.353314 -0.0983,1.038635 -0.22843,2.041377 -0.35521,3.076993 -0.41052,3.96031 -0.85569,7.916584 -1.31843,11.871163 -0.44964,3.83432 -0.77993,7.68031 -0.97867,11.53551 -0.10547,2.17979 -0.11516,4.36246 -0.12875,6.54426 -0.0104,3.15622 -0.003,6.31247 2.3e-4,9.46869 0.002,2.13806 0.0178,4.27606 0.0317,6.41406 0.008,0.89624 0.006,1.7925 0.01,2.68876 0.002,0.40729 7.9e-4,0.20969 0.002,0.59281 0,0 -2.50809,1.27792 -2.50809,1.27792 v 0 c 0.002,-0.38476 8e-4,-0.18631 0.003,-0.59537 0.004,-0.89958 0.002,-1.79918 0.01,-2.69875 0.0133,-2.14786 0.028,-4.29573 0.0267,-6.44365 -10e-4,-3.15391 -0.003,-6.30783 -0.0151,-9.46172 -0.008,-2.18708 -0.0254,-4.37602 0.12532,-6.55951 0.23872,-3.86807 0.58399,-7.72828 1.029,-11.578248 0.4499,-3.947072 0.88241,-7.895727 1.27027,-11.849367 0.13415,-1.097304 0.24772,-1.964724 0.3525,-3.063303 0.13795,-1.446417 0.20405,-2.890856 0.25567,-4.342212 0.0169,-0.474967 0.0363,-0.949841 0.0544,-1.424763 0.0763,-2.191446 0.13157,-4.384373 0.12231,-6.577285 -7.9e-4,-1.710857 0.002,-3.42202 -0.0452,-5.132393 -0.0616,-1.882656 -0.16319,-3.764124 -0.3591,-5.638181 -0.12767,-1.341567 -0.19299,-2.689153 -0.16846,-4.037163 -5.3e-4,-1.370012 -0.002,-2.740279 -0.0393,-4.109878 -0.0417,-1.12852 -0.11641,-2.253988 -0.26748,-3.373856 -0.0801,-1.039175 -0.16045,-2.077461 -0.21125,-3.118575 -0.0596,-0.780029 -0.081,-1.557541 -0.0554,-2.340348 0.006,-1.38526 0.0154,-2.770621 -0.002,-4.155837 0,0 2.4956,-1.271574 2.4956,-1.271574 z"
       inkscape:connector-curvature="0" />
    <path
       style="opacity:0;fill:#8200c8;fill-opacity:1;stroke-width:0.26458332"
       id="path4567"
       d="m 103.8339,142.05298 c 0.12816,-5.65937 0.0496,-11.31955 -0.037,-16.97875 -0.0523,-3.61299 -0.11309,-7.22787 -0.27394,-10.83808 -0.0835,-1.87511 -0.19083,-4.12991 -0.49925,-5.9905 -0.16866,-1.01742 -0.43863,-2.01542 -0.65794,-3.02313 -0.55287,-1.31112 -0.9701,-2.6881 -1.65861,-3.93335 C 98.648558,97.565918 95.177971,93.099413 92.458243,89.974638 89.046372,86.054646 84.307954,81.363539 80.413396,77.935256 78.219566,76.00408 75.902639,74.21741 73.647262,72.35849 68.209768,68.071097 62.516524,64.119151 56.605315,60.515044 c -1.861762,-1.135128 -4.747493,-2.8019 -6.798255,-3.813976 -0.715621,-0.353166 -1.459708,-0.645449 -2.189564,-0.968174 -0.833078,-0.239136 -1.80847,-0.654527 -2.7246,-0.502733 -0.318233,0.05273 -1.197107,0.477875 -0.889055,0.382181 0.520178,-0.161592 1.172315,-0.993469 1.527513,-0.580512 0.347298,0.40377 -0.640207,0.858102 -0.879491,1.333905 -0.520089,1.034161 -0.92765,2.121172 -1.391475,3.18176 -1.387232,3.602164 -2.662558,6.702374 -3.72749,10.458823 -1.454372,5.130162 -2.667262,10.871361 -3.21293,16.162882 -0.316648,3.070611 -0.60306,6.163725 -0.480775,9.248198 0.144918,3.655319 0.853033,7.266482 1.279549,10.899722 0.997299,3.87712 1.65295,7.85857 2.991895,11.63135 1.568648,4.42002 3.429847,8.76014 5.701255,12.86355 5.115716,9.24178 12.226716,18.23875 19.514616,25.83234 3.619981,3.77181 7.411011,7.40649 11.497966,10.6665 3.948509,3.14957 8.359365,5.67126 12.539048,8.50689 4.177787,2.10192 8.2158,4.50837 12.533368,6.30576 7.27221,3.02741 16.83488,5.60468 24.73096,6.41008 7.62648,0.77789 16.52119,0.20285 24.08801,-0.92283 3.66165,-0.54472 7.25579,-1.47349 10.88369,-2.21024 3.32392,-1.05567 6.73838,-1.86005 9.97175,-3.16703 5.89793,-2.38402 11.19285,-5.40356 16.19735,-9.28036 4.27549,-3.31205 9.33087,-7.83597 12.60328,-12.25147 1.50772,-2.03438 2.58556,-4.35461 3.87834,-6.53191 0.82668,-2.04649 1.81765,-4.03406 2.48004,-6.13947 1.08151,-3.43756 1.66147,-7.292 1.40932,-10.90798 -0.11378,-1.63156 -0.30729,-3.29195 -0.86349,-4.82999 -1.71665,-4.74701 -4.41411,-7.68952 -7.40224,-11.70075 -1.87424,-1.9936 -3.65234,-4.08217 -5.62272,-5.98081 -2.05782,-1.98289 -4.24687,-3.8274 -6.44775,-5.65018 -5.00284,-4.14337 -10.33378,-7.91493 -15.78573,-11.441118 -1.08426,-0.701265 -2.19219,-1.365219 -3.28829,-2.04783 -1.81882,-1.043684 -2.44067,-1.451205 -4.1967,-2.300936 -0.87183,-0.421873 -1.86791,-0.891977 -2.85395,-0.985094 -0.20732,-0.01958 -0.41641,0.0083 -0.62461,0.01251 -1.16213,0.22126 -2.19356,0.792374 -3.20375,1.378291 0,0 2.17876,-1.763207 2.17876,-1.763207 v 0 c 1.02514,-0.580649 2.09491,-1.124773 3.28455,-1.250323 0.21718,0.01212 0.43659,0.003 0.65153,0.03633 0.98724,0.153221 1.95142,0.641334 2.82162,1.096328 1.7209,0.899782 2.3089,1.304975 4.09493,2.391913 1.07158,0.701106 2.1536,1.386498 3.21473,2.103313 5.36443,3.623773 10.61534,7.454233 15.59274,11.596753 2.20364,1.834 4.40853,3.67347 6.48077,5.65474 1.98661,1.89941 3.78843,3.98314 5.68264,5.97471 2.87552,3.79054 5.92493,7.17056 7.61477,11.70971 0.57711,1.55022 0.75689,3.23554 0.86804,4.88596 0.24553,3.64568 -0.36255,7.56945 -1.46376,11.02861 -0.67703,2.12675 -1.68594,4.1332 -2.52891,6.1998 -1.30183,2.19738 -2.38464,4.54026 -3.9055,6.59214 -3.0132,4.06525 -8.73057,9.4335 -12.7059,12.35294 -5.58727,4.10326 -13.27401,8.70544 -19.8111,11.32581 -3.22616,1.29319 -6.63258,2.08106 -9.94887,3.12159 -3.61729,0.72026 -7.20185,1.63073 -10.85185,2.1608 -7.51314,1.0911 -16.53065,1.65834 -24.09455,0.85882 -7.78207,-0.82259 -17.51541,-3.50609 -24.65957,-6.5232 -4.301867,-1.81675 -8.31844,-4.2462 -12.477661,-6.3693 -4.173688,-2.84977 -8.580482,-5.38502 -12.52106,-8.5493 -7.509877,-6.03043 -16.384328,-15.56515 -22.183306,-23.16326 -6.620039,-8.67389 -11.093487,-15.97111 -14.809896,-26.15796 -1.373029,-3.76354 -2.046851,-7.74649 -3.070278,-11.61974 -0.468289,-3.62538 -1.228863,-7.22489 -1.404861,-10.876159 -0.148627,-3.083377 0.137433,-6.178052 0.434703,-9.250664 0.489749,-5.062143 1.692904,-11.170012 3.029183,-16.116403 0.929536,-3.440792 2.316704,-7.037316 3.546739,-10.396254 0.0082,-0.02069 1.35595,-3.915167 2.076738,-4.552151 0.266105,-0.235167 2.78429,-2.343713 4.146154,-2.450735 0.93327,-0.07334 1.861187,0.354936 2.706483,0.632952 0.714478,0.340143 1.442726,0.652751 2.14343,1.020429 2.025446,1.062805 4.814784,2.751918 6.66333,3.922356 5.831834,3.692517 11.474973,7.678888 16.87291,11.983307 2.261925,1.860584 4.585978,3.648114 6.785776,5.581756 3.797935,3.338411 8.754253,8.243411 12.112951,12.033914 2.606024,2.941063 6.441135,7.71807 8.494135,11.247432 0.72239,1.24188 1.17104,2.62396 1.75656,3.93594 0.22661,1.01424 0.50713,2.01794 0.67983,3.04274 0.31701,1.88109 0.41263,4.12408 0.48581,6.02119 0.13951,3.61685 0.17867,7.23809 0.2459,10.85664 0.10068,5.62622 0.18516,11.25235 0.24182,16.87914 0,0 -2.48696,1.26717 -2.48696,1.26717 z"
       inkscape:connector-curvature="0" />
    <path
       style="opacity:0;fill:#8200c8;fill-opacity:1;stroke-width:0.26458332"
       id="path4569"
       d="m 155.81079,94.089716 c -0.48519,-0.0056 -0.97036,-0.02061 -1.45556,-0.01683 -0.8427,0.0066 -1.68515,0.03193 -2.52773,0.04789 -1.55192,0.01582 -3.10378,0.03813 -4.65576,0.04747 -8.81444,0.05308 -17.62907,0.09384 -26.44356,0.143576 -17.56051,0.04696 -35.121172,0.111461 -52.681285,0.243224 -0.555691,0.0058 -4.716975,0.04093 -5.896908,0.0764 -0.117026,0.0035 -0.463847,0.06128 -0.349248,0.03731 2.452484,-0.51291 4.867169,-1.302181 7.364534,-1.504481 3.10646,-0.25164 6.232314,0.110884 9.348698,0.150622 4.157223,0.05301 8.31469,0.08508 12.472035,0.127616 31.944664,0.23654 63.889724,0.401296 95.834884,0.549243 2.15859,0.0098 12.25502,0.06669 15.35465,0.04752 1.15828,-0.0072 2.31995,0.03002 3.47426,-0.06597 0.17261,-0.01434 0.61831,-0.29986 0.44969,-0.260316 -1.70795,0.400537 -3.33485,1.268389 -5.08734,1.347902 -3.01686,0.136879 -6.02149,-0.471517 -9.03223,-0.707276 -27.99483,-2.00279 -56.03736,-3.281038 -84.08534,-4.249749 C 100.67785,89.854617 93.460394,89.62312 86.241788,89.43608 80.625859,89.290567 75.00831,89.216177 69.391571,89.106227 c -3.09001,-0.02945 -6.276212,0.677204 -9.270031,-0.08836 -0.996421,-0.254799 1.61295,-1.475692 2.632771,-1.608881 2.544569,-0.332319 5.129384,0.174551 7.694133,0.260197 4.251008,0.141959 8.50205,0.282797 12.753128,0.422619 21.648368,0.712036 8.283017,0.245345 32.335378,1.12821 15.37501,0.545764 30.7518,1.039513 46.1295,1.502687 6.46406,0.194697 12.92943,0.357537 19.39237,0.587442 -0.88947,0.532418 -1.65383,1.384527 -2.66841,1.597257 -1.26338,0.264901 -2.57657,-0.164309 -3.8659,-0.227176 -2.80041,-0.136549 -5.60131,-0.264337 -8.40302,-0.37106 -5.73414,-0.218427 -17.09846,-0.560273 -22.56573,-0.666591 -4.5502,-0.08848 -9.10131,-0.121539 -13.65196,-0.182308 -8.99986,-0.01865 -15.29933,-0.07211 -24.16167,0.05362 -3.75023,0.0532 -10.355627,0.203264 -14.435254,0.458846 -1.083648,0.06789 -3.315345,1.393878 -3.242479,0.310552 0.0785,-1.167114 2.201056,-0.792858 3.301585,-1.189289 1.579827,0.140139 3.157288,0.31014 4.739481,0.420418 2.364602,0.164814 19.215087,1.088615 19.602157,1.110017 12.51946,0.692235 25.04002,1.362665 37.5605,2.036133 6.74016,0.396655 13.48721,0.68394 20.2249,1.124503 0.77516,0.05069 1.55491,0.06606 2.32365,0.177752 0.10302,0.01497 0.34003,0.155742 0.24373,0.19527 -1.45875,0.598747 -2.98179,1.02701 -4.47268,1.540516 -13.91856,-0.915345 -27.84806,-1.640928 -41.78347,-2.241127 -0.38564,-0.0095 -4.95217,-0.178022 -6.07719,-0.05872 -0.1962,0.0208 -0.71854,0.326353 -0.53777,0.247311 1.01512,-0.443851 1.95513,-1.121238 3.04087,-1.341768 0.56013,-0.113771 1.11053,0.272582 1.67099,0.384718 0.76519,0.153098 1.5365,0.273827 2.30475,0.410741 3.25972,0.480783 1.65525,0.260128 4.813,0.665091 0,0 -2.17812,1.539629 -2.17812,1.539629 v 0 c -3.1536,-0.420401 -1.54738,-0.196209 -4.81833,-0.674946 -0.78265,-0.132123 -1.56807,-0.248738 -2.34795,-0.39637 -0.58503,-0.110747 -1.67413,0.212542 -1.74568,-0.378561 -0.30363,-2.508205 2.98874,-2.028859 4.02815,-1.990346 1.27379,0.0472 2.54666,0.116538 3.81999,0.174807 13.98721,0.783281 27.97559,1.57883 41.97619,2.082398 -0.037,0.496541 -0.0704,0.99336 -0.11092,1.489623 -0.003,0.03269 0.0297,-0.0931 -0.003,-0.09837 -0.72793,-0.118533 -1.46301,-0.190169 -2.19723,-0.259855 -6.5948,-0.625917 -13.21649,-0.934913 -19.82228,-1.409227 -12.50562,-0.758216 -25.01284,-1.483211 -37.52861,-2.056844 -6.66807,-0.305617 -13.34143,-0.492898 -20.008168,-0.826476 -1.665372,-0.08333 -3.328109,-0.212889 -4.99216,-0.319331 0.356862,-0.63564 0.41942,-1.57925 1.070591,-1.906918 0.924467,-0.465193 2.064676,-0.152014 3.09885,-0.191149 1.901881,-0.07197 3.804968,-0.111114 5.707957,-0.142113 10.81181,-0.176122 21.62526,-0.0701 32.43758,-0.02949 4.58149,0.03944 9.16328,0.05266 13.74446,0.118311 7.72021,0.11063 15.07228,0.339886 22.77462,0.517985 2.88952,0.06681 5.77926,0.124011 8.66899,0.180721 1.35327,0.02656 2.95565,-0.713523 4.05998,0.06908 0.6375,0.451773 -1.1526,1.05524 -1.7289,1.582862 -0.93853,-0.08443 -1.8751,-0.194609 -2.81559,-0.253286 -3.42662,-0.213786 -13.50949,-0.633174 -16.00559,-0.737613 -15.27383,-0.639075 -30.55032,-1.213999 -45.82919,-1.718673 -2.09359,-0.06006 -28.910139,-0.836356 -32.62326,-0.918567 -4.346781,-0.09624 -8.69407,-0.185399 -13.041846,-0.210082 -2.693019,-0.01529 -5.432193,0.588841 -8.078685,0.09018 -0.629864,-0.118682 0.909267,-0.9036 1.363901,-1.3554 2.941936,0.136308 5.883873,0.272616 8.825812,0.408924 20.391871,0.659863 40.782708,1.321401 61.168688,2.149007 19.77223,0.80269 25.36912,1.094176 44.7617,1.997181 5.69863,0.265353 11.3973,0.529735 17.09595,0.794602 3.13457,0.150516 6.34705,-0.259056 9.40372,0.451546 0.66466,0.154519 0.60613,1.238972 0.74338,1.907413 0.0231,0.112657 -0.22611,0.05181 -0.34112,0.05181 -1.10587,-6.4e-5 -2.21154,-0.03083 -3.31721,-0.05201 -5.00119,-0.09581 -10.00166,-0.227875 -15.00329,-0.301942 -21.07275,-0.315347 -42.14772,-0.529212 -63.22299,-0.569632 -5.93311,-0.01138 -11.86624,0.01572 -17.79936,0.01688 -4.930563,0.0011 -9.861121,-0.007 -14.791682,-0.01048 -4.217003,5.29e-4 -8.434009,-0.0036 -12.651009,0.0019 -3.198146,0.0042 -6.420369,0.418986 -9.594411,0.02703 -1.152139,-0.142277 -2.077744,-1.037376 -3.096379,-1.594197 -0.07314,-0.03998 0.164013,0.03421 0.247322,0.03681 1.13882,0.03558 5.19322,0.06231 5.699567,0.06685 17.478652,0.09155 34.958242,0.08004 52.436542,-0.06695 5.53491,-0.04796 13.15443,-0.103265 18.73886,-0.192239 2.66364,-0.04244 5.32705,-0.0999 7.99028,-0.163049 1.59332,-0.03778 3.18618,-0.09317 4.77926,-0.139758 0.86484,-0.02925 1.72947,-0.06566 2.59452,-0.08774 0.50049,-0.01278 1.00124,-0.01122 1.50186,-0.01683 0,0 -2.25419,1.637769 -2.25419,1.637769 z"
       inkscape:connector-curvature="0" />
    <path
       style="opacity:0;fill:#8200c8;fill-opacity:1;stroke-width:0.26458332"
       id="path4571"
       d="m 134.69895,128.43919 c -2.05072,1.12312 -4.27804,1.92216 -6.54412,2.48723 -1.18478,0.29543 -2.37156,0.59927 -3.57917,0.77995 -2.03478,0.30443 -4.09028,0.449 -6.13542,0.6735 -5.82311,0.40431 -11.94565,0.8918 -17.76855,1.01419 -3.981315,0.0837 -7.964903,0.0698 -11.946591,0.006 -10.340954,-0.16569 -15.647056,-0.32091 -25.960649,-1.88198 -4.129286,-0.62501 -8.200213,-1.58842 -12.300318,-2.38263 -3.503496,-1.11395 -7.565234,-1.14167 -10.510488,-3.34186 -2.857892,-2.13494 -4.735997,-5.55402 -5.908014,-8.92327 -3.164101,-9.096 -1.185635,-18.001137 3.928872,-26.040687 C 46.20442,77.892965 56.568027,72.076687 68.630386,63.133091 83.895879,54.943223 93.409438,49.013559 109.62307,43.344795 c 12.17786,-4.257736 26.07339,-7.181289 38.93337,-8.438184 14.47302,-1.41455 17.1478,-0.536347 30.88323,0.798251 7.76761,1.720969 12.69497,2.103006 19.52396,6.03096 2.20787,1.269944 4.50078,2.668031 6.00816,4.72115 2.99395,4.077923 3.89589,11.529116 2.55495,16.212736 -1.12595,3.932684 -3.63249,7.33076 -5.44874,10.996141 -3.28405,3.809444 -6.06366,8.120121 -9.85214,11.428333 -4.8191,4.208182 -10.24579,7.712824 -15.76785,10.943817 -19.38227,11.340691 -41.3081,18.918251 -63.24744,23.419581 -7.05186,1.44684 -14.228753,2.19791 -21.343129,3.29687 -18.165921,0.19646 -22.453605,1.51055 -39.865797,-3.08061 -11.226432,-2.96013 -19.388206,-6.22776 -26.949928,-15.24668 -2.793631,-3.33198 -5.258432,-7.203457 -6.290974,-11.427239 -1.071989,-4.385143 0.124753,-9.027678 0.187129,-13.541517 2.641909,-4.729356 4.607379,-9.906122 7.925726,-14.188065 7.435924,-9.595201 18.568354,-17.66634 29.145039,-23.302711 10.076703,-5.369927 24.971385,-11.255205 36.642219,-12.403073 6.124448,-0.602364 12.300095,0.440883 18.450145,0.661326 5.78241,1.564304 11.75139,2.555144 17.34721,4.692909 10.21099,3.900889 19.37457,9.785924 27.0548,17.561091 3.39176,3.433678 6.37806,7.297558 8.95126,11.380788 6.32829,10.041884 6.05788,13.089278 8.58307,24.241921 -0.0427,3.944725 0.61035,7.958931 -0.12801,11.834174 -0.78189,4.103756 -2.38656,8.068656 -4.36513,11.747986 -4.14456,7.70718 -10.72039,14.42039 -17.6595,19.6073 -8.82986,6.6002 -15.23322,8.76663 -25.33519,13.31088 -4.06396,1.16583 -8.06345,2.58588 -12.19188,3.4975 -3.85098,0.85035 -7.76863,1.42896 -11.69695,1.77752 -3.558252,0.31573 -7.153334,0.49047 -10.714633,0.21109 -5.857632,-0.45952 -12.538207,-2.25649 -17.740421,-5.10196 -2.290045,-1.25259 -4.224099,-3.0676 -6.336149,-4.60141 -1.139846,-2.41137 -2.628175,-4.68702 -3.419538,-7.23412 -3.768519,-12.12943 0.836893,-24.82737 7.632128,-34.900486 2.111954,-3.130722 4.689882,-5.92048 7.034824,-8.880718 3.082507,-2.746142 5.972474,-5.725022 9.24752,-8.238426 6.558161,-5.032997 15.538419,-10.072746 23.124149,-13.160391 3.44797,-1.403437 6.99455,-2.751939 10.68303,-3.255103 9.38474,-1.280218 11.71385,0.784093 20.12021,3.980395 2.6235,2.100797 5.58037,3.84244 7.87051,6.30239 4.36902,4.692963 8.29513,12.06649 9.40855,18.405727 0.68699,3.911385 0.63134,7.954882 0.27927,11.910502 -0.37014,4.15853 -1.02591,8.35561 -2.43295,12.28633 -1.5423,4.30859 -4.21772,8.1229 -6.32658,12.18435 -3.7161,3.59897 -7.03199,7.66354 -11.1483,10.79691 -4.40993,3.35689 -9.24914,6.18277 -14.2623,8.54591 -13.1985,6.22161 -23.00893,8.84044 -37.77966,8.41845 -17.811525,-0.50887 -27.135478,-4.45091 -44.001972,-9.4279 -6.403891,-3.40203 -13.148696,-6.22817 -19.21167,-10.20612 C 14.932967,132.16345 2.5177346,121.38497 -2.5505467,111.64432 -5.043053,106.85401 -6.4840775,101.43806 -6.9757011,96.060515 -8.2521453,82.098347 -4.1997579,77.784623 1.524051,65.693305 5.4228229,61.448862 8.6114553,56.420273 13.220367,52.959978 24.968856,44.139405 41.379814,38.212138 55.465635,34.960022 c 19.06533,-4.401777 31.534354,-4.921194 51.105325,-2.287021 8.69786,1.170694 17.1525,3.72626 25.72875,5.589392 7.50054,2.495084 15.22399,4.399883 22.50163,7.485253 11.97114,5.075184 23.81919,12.482457 33.37535,21.375901 5.67157,5.278253 14.38197,15.719668 16.72704,23.693699 1.12034,3.809506 0.42347,7.930362 0.63521,11.895544 -3.52643,8.24086 -4.85457,14.19827 -12.26861,20.06997 -9.43952,7.47583 -19.86642,10.65561 -31.51976,12.83489 -6.63707,1.24119 -13.37558,2.12765 -20.12554,2.29874 -7.74824,0.1964 -15.4808,-0.80003 -23.2212,-1.20005 -21.133714,-4.73707 -26.867348,-5.22823 -46.882617,-12.73847 -6.344049,-2.38045 -12.60471,-5.03401 -18.627203,-8.13934 -8.455671,-4.35992 -17.950865,-10.36602 -23.862649,-18.191626 -2.220939,-2.93992 -3.296904,-6.59039 -4.945356,-9.885584 -0.10968,-3.430874 -1.266481,-6.990483 -0.329041,-10.292623 2.527064,-8.901596 11.68982,-17.735671 18.34589,-23.083953 10.374485,-8.336098 23.187276,-15.16421 35.365864,-20.254664 6.500823,-2.717239 13.31527,-4.613008 19.972907,-6.919513 6.861405,-1.514113 13.645785,-3.433476 20.584225,-4.542343 18.62833,-2.97709 38.27884,-3.126316 56.54205,2.16031 5.17335,1.497524 10.33068,3.301532 15.02534,5.94092 4.50937,2.535216 8.2151,6.289609 12.32264,9.434412 6.20057,7.673969 12.25278,13.304305 14.67372,23.271482 1.94792,8.01969 0.40184,17.328017 -3.61959,24.465237 -5.68956,10.097842 -10.96889,11.792035 -20.46318,17.962035 -14.27875,5.24626 -18.95819,8.23564 -34.38557,8.86683 -15.60593,0.6385 -29.09541,-1.9682 -44.07089,-6.3494 -7.56471,-2.21312 -15.091334,-4.70637 -22.247225,-8.01028 C 84.84727,97.198211 78.52076,92.769641 71.879565,88.949577 60.67961,78.621389 51.662647,72.348282 44.760004,58.459771 42.161002,53.230433 39.851962,47.509001 39.758389,41.670165 39.561862,29.407146 47.516322,16.615469 55.087789,7.9222731 c 4.421706,-5.0767926 9.987674,-9.0303715 14.981513,-13.5455573 6.96346,-3.4616959 13.573945,-7.7501428 20.890375,-10.3850878 12.101043,-4.358077 32.445423,-7.501616 45.340973,-6.166618 13.31102,1.378007 31.12827,8.247968 43.01394,14.291608 5.79623,2.947272 11.11517,6.7515626 16.67275,10.1273439 9.65598,7.9510851 15.01856,10.7969531 21.3219,21.4242541 4.0749,6.870182 6.11352,12.203386 0.85988,19.217289 -6.92257,9.242017 -18.16822,10.364089 -28.32411,13.6398 -20.84598,2.872086 -25.99854,4.212434 -47.64382,4.469378 -9.26135,0.10994 -18.5297,-0.203276 -27.77615,-0.73973 C 96.272433,59.20179 79.244734,57.401483 61.558153,53.088677 54.156263,51.283756 47.016669,48.535865 39.745927,46.259458 27.498939,40.79785 20.431394,38.587566 9.9767481,30.783212 5.2202534,27.232506 -0.58622093,22.687956 -0.14280995,15.787246 0.29377587,8.9927545 6.2296296,5.953766 10.691846,2.211579 15.903944,0.04135266 20.962473,-2.5425478 26.328139,-4.2991 c 13.159706,-4.3080786 26.026168,-6.017712 39.844747,-6.991103 18.153854,-1.278771 29.669496,-1.005866 47.730104,1.794611 7.50375,1.1635309 14.85201,3.1714289 22.27801,4.7571432 14.79292,4.94107658 21.04284,6.1620876 34.24923,13.6212187 3.95226,2.2322851 7.77467,4.7539921 11.24547,7.6792391 5.28509,4.45438 9.76361,8.801559 8.37784,16.372059 -0.57148,3.122039 -2.887,5.65332 -4.33051,8.479978 -4.11272,2.653797 -7.87497,5.952172 -12.33817,7.961386 -14.16333,6.375951 -31.54349,10.003251 -46.65672,12.627028 -12.84767,2.230456 -37.931964,5.289278 -51.219135,6.102512 -7.820191,0.478631 -15.665333,0.367694 -23.498002,0.551539 C 45.01221,68.28582 37.981413,68.308881 31.014625,67.544436 21.359856,66.485044 7.9539848,63.577858 -1.4759877,60.341409 -6.4091496,58.648306 -15.608963,54.839364 -19.593412,50.582451 c -1.546236,-1.651971 -2.088346,-4.01475 -3.132519,-6.022123 0.214182,-2.068282 -0.36788,-4.387509 0.642547,-6.204842 3.192144,-5.74132 13.5505174,-10.37061 18.4218754,-12.337867 C 0.72587384,24.245813 5.3202977,23.006172 9.9115805,21.862257 23.233256,18.543169 29.28892,18.260407 43.07668,16.589288 c 6.113515,-0.300424 12.219995,-0.966231 18.340543,-0.901271 12.015184,0.127521 29.842788,1.948966 41.561347,4.4769 6.81672,1.470507 13.52254,3.465576 20.13274,5.687164 14.90884,5.010641 18.55089,7.47728 31.93377,14.376359 4.2309,2.891909 14.2287,8.825968 17.41796,13.919221 1.10854,1.77034 1.72512,4.127982 1.20148,6.150049 -1.75617,6.781538 -13.76739,9.244925 -17.70323,10.272771 -5.45525,1.424641 -11.11637,1.893144 -16.67456,2.839714 -19.51208,1.788219 -21.43704,2.323338 -41.480938,2.643648 -7.280257,0.116343 -14.564937,0.0832 -21.843214,-0.122544 C 62.257439,75.543883 48.786623,74.769254 35.281123,72.24356 29.498081,71.16206 23.867349,69.383735 18.160462,67.95382 8.8590129,64.316056 2.3876526,62.815051 -5.1922354,56.390505 -9.6465891,52.615091 -13.583129,47.913382 -10.788607,41.534199 -7.3878878,33.771223 2.4042111,28.644328 8.6341113,24.347546 16.612066,20.455795 32.770204,11.789591 41.922832,10.363718 c 18.310431,-2.8525513 35.82173,-0.009 53.632462,4.204647 8.879176,2.100642 17.609616,4.856156 26.190676,7.95744 7.48983,2.706906 14.63186,6.29354 21.94779,9.440312 11.70749,6.496653 18.69876,9.520634 28.63779,17.818152 2.82143,2.355451 9.71205,7.502065 7.68622,12.954593 -1.94016,5.221922 -12.54058,7.383803 -15.60075,8.502282 -13.72728,0.77565 -18.92611,1.534454 -33.26325,0.174032 -7.12692,-0.676259 -14.21146,-1.799182 -21.25444,-3.082372 C 94.433243,65.514981 83.44922,62.708273 68.765252,57.277624 63.11067,55.18636 57.673147,52.549411 52.127094,50.185303 43.556499,45.286181 37.061708,42.555593 30.324099,35.411444 25.785004,30.598467 23.327641,26.573601 25.295203,19.831639 27.463025,12.403474 32.782467,9.4198079 38.307652,4.6636998 c 4.442442,-2.388255 8.703435,-5.15014199 13.327322,-7.1647649 11.465073,-4.9953201 20.969928,-6.6040857 33.474681,-8.5043439 11.736469,-1.783508 27.843675,-3.411105 39.744195,-3.247502 6.92167,0.09516 13.81091,0.965811 20.71636,1.448717 6.60407,1.094688 13.26245,1.901075 19.81221,3.2840635 10.09088,2.130698 23.59553,5.9729933 33.11924,10.38824203 4.44193,2.05930727 8.6768,4.57373577 12.75843,7.27777397 3.53647,2.3428765 6.94902,4.9156475 10.03717,7.8240885 2.67265,2.517127 4.77221,5.580504 7.15832,8.370757 1.48915,2.704017 3.29434,5.25669 4.46746,8.112047 0.97782,2.379988 1.62695,4.918035 1.93544,7.472503 0.54206,4.488703 -0.0222,8.854037 -3.43159,12.229896 -4.7675,4.720603 -13.51232,6.940428 -19.2039,9.027395 -10.86821,1.840145 -15.22939,3.016247 -26.57801,3.021071 -12.83493,0.0054 -23.21162,-1.45804 -35.89232,-3.886023 -6.35342,-1.216493 -12.65877,-2.688309 -18.92812,-4.282398 -5.81686,-1.479034 -11.54453,-3.288985 -17.3168,-4.933479 -12.06247,-4.353829 -16.008931,-5.396595 -27.106016,-10.732029 -3.134641,-1.507122 -6.211729,-3.14344 -9.19915,-4.924649 -3.781134,-2.254452 -7.818003,-5.056802 -10.746465,-8.452602 -0.917998,-1.064499 -1.526944,-2.360501 -2.290415,-3.540752 -0.637861,-2.607337 -1.237338,-3.325161 -0.334966,-5.91688 0.307555,-0.883335 0.819828,-1.695774 1.388348,-2.438507 2.400401,-3.135945 6.311379,-4.766126 9.658406,-6.5457954 4.500046,-1.7987864 9.316529,-2.583077 14.134872,-2.8737903 0.76849,-0.046367 1.538925,-0.051242 2.308389,-0.076864 2.756649,0.015719 5.492144,0.3602365 8.085275,1.3244912 1.122252,0.4173095 1.873962,0.8121689 2.934772,1.3283435 0.9818,0.6030711 2.30305,1.1624588 3.00004,2.135209 0.31382,0.43798 0.2894,0.577705 0.40759,1.098195 0.0288,1.362996 -0.34988,2.696282 -0.62118,4.023071 -0.24579,0.875842 -0.38387,1.765368 -0.50337,2.664718 -0.38861,2.875598 -0.67953,5.761724 -0.88986,8.655501 -0.34083,3.60308 -0.50411,7.216757 -0.59823,10.83347 -0.0729,4.141034 -0.15071,8.281959 -0.26195,12.422145 -0.0898,2.000033 -0.0522,4.005271 -0.15023,6.004714 -0.0866,1.239626 -0.30612,2.46703 -0.48328,3.696464 -0.15417,1.176401 -0.25292,2.358597 -0.36646,3.539202 -0.84696,0.196607 -1.69161,0.776192 -2.540877,0.589825 -0.372629,-0.08177 0.0041,-0.763027 0.01373,-1.1444 0.06696,-2.656334 0.281631,-5.300106 0.556774,-7.941873 0.628363,-4.738894 0.983223,-9.503275 1.185863,-14.277268 0.10484,-2.876979 0.13263,-5.756098 0.11537,-8.63473 0.0285,-0.723162 -0.0708,-1.453925 0.002,-2.176026 0.0255,-0.251407 0.0677,-0.500846 0.10151,-0.751269 0.41366,-2.156079 1.12535,-4.238696 1.80436,-6.321434 0.77751,-2.384878 0.44302,-1.380952 1.2361,-3.6951 0.73408,-2.390981 1.71227,-4.686784 2.71945,-6.97111 0.17625,-0.421814 0.27119,-0.632108 0.42039,-1.046087 0.4599,-1.2761175 0.10862,-1.3033455 2.77205,-1.6934395 0.23211,-0.033995 0.01,0.4690703 0.0146,0.7036054 -0.0259,0.4358171 -0.0409,0.8724041 -0.0775,1.3074491 -0.13648,1.622464 -0.36365,3.362864 -0.56135,4.960211 -0.58139,4.697492 -1.239,9.383987 -1.88295,14.073242 -1.06632,7.745076 -1.9295,15.518738 -2.53833,23.313419 -0.2934,3.756295 -0.33858,4.882448 -0.54226,8.504724 -0.20696,3.793564 -0.24867,7.592637 -0.36326,11.38936 -0.0324,1.113777 0.0625,1.314937 -2.53554,1.354124 -0.32872,0.0049 0.001,-0.657542 0.006,-0.986263 0.009,-0.565963 0.0244,-1.131809 0.0362,-1.697718 0.0784,-3.730281 0.009,-1.612212 0.22869,-6.12023 0.73271,-10.794093 1.13766,-21.605764 1.60587,-32.413324 0.1937,-5.004175 0.44032,-10.006028 0.65403,-15.009325 0.0598,-1.472239 -0.20739,-2.039154 2.57375,-2.105994 0.34331,-0.0083 -0.0611,0.684094 -0.0926,1.026051 -0.18468,2.00413 -0.16846,1.80504 -0.37915,3.961494 -0.86502,7.427446 -1.7618,14.851303 -2.63871,22.277426 -0.2696,2.578878 -0.61411,5.151078 -0.86067,7.732496 -0.0306,0.320709 0.18441,0.762204 -0.0666,0.964213 -3.495812,2.813865 -2.32874,0.714613 -1.84514,-0.930865 2.04459,-9.031645 2.78664,-18.290897 3.51431,-27.502315 0.53936,-7.246347 0.80239,-14.5089608 0.88462,-21.773753 0.002,-0.6576256 0.007,-1.31524704 0.007,-1.97287674 1e-4,-0.49255754 2.6e-4,-0.98514685 -0.006,-1.47765916 -0.01,-0.7107412 -0.40522,-4.0022123 2.47037,-1.6808343 0.73679,0.5947853 -0.15079,1.88782162 -0.21699,2.83240676 -0.14224,2.02953114 -0.27222,4.05990294 -0.40833,6.08985454 -0.9076,14.5743869 -1.43368,29.1693919 -1.76309,43.7672899 -0.0566,3.097887 -0.11331,6.19606 -0.12298,9.294545 -10e-4,0.407924 -0.003,0.815896 0.004,1.223772 0.001,0.08815 0.1035,0.2369 0.0195,0.263761 -0.81173,0.259665 -1.66747,0.353401 -2.50121,0.530101 -0.0117,-0.576827 -0.0148,-1.153891 -0.0351,-1.730476 -0.057,-1.619157 -0.19132,-3.883993 -0.27332,-5.458764 -0.16837,-3.233343 -0.3536,-6.461824 -0.58465,-9.691357 -0.18839,-2.478119 -0.39054,-4.955159 -0.58721,-7.432627 -0.0257,-0.323792 -0.1842,-2.469256 -0.25303,-2.951017 -0.0423,-0.296431 -0.12396,-0.585915 -0.18594,-0.878872 -0.14405,-0.112868 -0.2572,-0.284887 -0.43214,-0.338608 -0.668198,-0.205185 -1.930379,0.430276 -2.488539,0.683683 -0.627515,0.284893 -1.675699,0.812977 -2.28669,1.116732 0.838925,-0.486346 -2.884268,1.604293 -2.155971,1.216409 0.501555,-0.267123 0.974744,-0.587169 1.485098,-0.837062 0.245158,-0.120042 -0.460364,0.29356 -0.686712,0.446137 -0.446056,0.300675 -0.552924,0.390898 -0.958194,0.700683 -1.01309,0.779976 -1.410174,2.022277 -1.869416,3.16737 -0.851512,2.212713 -1.469142,4.506563 -1.968752,6.821529 -0.172519,1.008642 -0.385715,2.024817 -0.423653,3.05135 -0.0241,0.652013 0.01566,0.789136 0.08594,1.456277 0.07202,0.321421 0.113213,0.651343 0.216072,0.964263 0.809483,2.462583 2.37031,4.901182 3.900509,6.967167 0.507421,0.685091 1.058693,1.336591 1.58804,2.004886 1.267132,1.309775 2.478889,2.685002 3.991417,3.733086 2.941331,2.038156 6.543591,3.371487 9.976881,4.286985 1.2007,0.32017 2.42766,0.532209 3.64149,0.798314 1.20845,0.155289 2.41112,0.365196 3.62534,0.465865 4.43638,0.367811 9.06593,0.04208 13.41137,-0.920112 1.03363,-0.228873 2.04797,-0.537525 3.07196,-0.806289 2.89118,-0.922192 5.68285,-2.137068 8.30943,-3.659185 0.0394,-0.02281 -0.0143,-0.106362 0.0212,-0.134871 4.85849,-3.905078 -0.80987,0.937141 3.41873,-2.725856 1.44412,-1.431812 2.86734,-2.91536 3.38002,-4.93594 0,0 2.52221,-1.211715 2.52221,-1.211715 v 0 c -0.0387,0.172776 -0.0638,0.349131 -0.11599,0.518327 -0.56774,1.842116 -1.98381,3.278785 -3.2952,4.617484 -0.51589,0.452123 -1.01383,0.925592 -1.54768,1.356368 -2.20928,1.782728 -3.67583,2.578349 -6.42983,4.16065 -2.63149,1.511919 -5.43943,2.693617 -8.33294,3.600444 -2.78211,0.711576 -3.40434,0.954252 -6.26807,1.348182 -4.60623,0.633624 -9.29782,0.579276 -13.88038,-0.209733 -1.21686,-0.273132 -2.44683,-0.493307 -3.65058,-0.819398 -3.40076,-0.921253 -7.168893,-2.327191 -10.090787,-4.336219 -1.524431,-1.048163 -2.760631,-2.450624 -4.034835,-3.766953 -0.535075,-0.671536 -1.090758,-1.327155 -1.605225,-2.014609 -1.296588,-1.732557 -2.467864,-3.564183 -3.397541,-5.520404 -0.231486,-0.48709 -0.459562,-0.977582 -0.641741,-1.48518 -0.114369,-0.318667 -0.163375,-0.657132 -0.245062,-0.9857 -0.0793,-0.634434 -0.134462,-0.873638 -0.119894,-1.50069 0.02424,-1.042683 0.267833,-2.073852 0.43542,-3.097654 0.507833,-2.321545 1.117946,-4.625012 1.940337,-6.856889 0.423053,-1.104262 0.215848,-0.602909 0.660043,-1.618919 0.280842,-0.642369 0.553011,-1.235536 1.124382,-1.674429 2.164601,-1.707883 4.657571,-2.931951 7.054381,-4.275847 0.610283,-0.301014 1.679252,-0.83857 2.310152,-1.109564 0.73556,-0.31595 1.8704,-0.872297 2.6943,-0.449205 0.21085,0.108281 0.33532,0.335108 0.50298,0.502664 0.0592,0.306321 0.13896,0.609372 0.17749,0.918969 0.05,0.401976 0.18816,2.762991 0.20229,2.980963 0.16133,2.489464 0.34519,4.977376 0.52663,7.465433 0.37046,5.60511 0.67672,11.21411 1.04907,16.819099 -0.83035,0.667036 -1.6186,1.390166 -2.49104,2.001104 -0.0797,0.0558 0.0389,-0.191254 0.0451,-0.288332 0.0268,-0.417219 0.0384,-0.835287 0.054,-1.253075 0.11709,-3.132195 0.19904,-6.265671 0.32149,-9.397682 0.53211,-14.601862 1.16914,-29.199244 1.8101,-43.7966829 0.0668,-1.9950528 0.14053,-3.9898875 0.2005,-5.9851582 0.0275,-0.91345343 -0.40674,-1.95627666 0.0618,-2.7409017 0.50188,-0.84049 1.56982,-1.2324783 2.4975,-1.5450761 0.22522,-0.075892 -0.0212,0.4748917 -0.0267,0.7124909 -0.027,1.1613283 -0.027,2.32319317 -0.061,3.484394 -0.16379,7.3027078 -0.48584,14.601093 -1.06707,21.883644 -0.74662,9.177117 -1.41995,18.398957 -3.28197,27.432805 -0.40174,2.143192 0.013,3.013332 -3.05135,3.325181 -0.33385,0.03397 0.0792,-0.666483 0.12217,-0.9993 0.33538,-2.597155 0.67346,-5.193937 0.98556,-7.794082 0.90851,-7.398512 1.79028,-14.800906 2.53516,-22.217938 0.24732,-2.840146 0.1342,-1.367707 0.3047,-3.920449 0.0213,-0.318195 -0.1668,-0.735305 0.0648,-0.954513 0.70059,-0.66305 1.63373,-1.031396 2.4942,-1.467372 0.30945,-0.156797 -1.49034,2.355531 -0.11726,1.034126 -0.31073,5.037865 -0.62472,10.075459 -0.8711,15.117042 -0.5468,10.790743 -1.03328,21.584851 -1.53915,32.377533 -0.0772,2.576063 -0.13979,5.142936 -0.10246,7.719806 0.005,0.316106 0.25387,0.723485 0.0312,0.947904 -2.73499,2.75653 -2.59541,2.359448 -2.44581,1.193072 0.22951,-3.829269 0.29756,-7.666368 0.56162,-11.49397 0.23963,-3.589364 0.3079,-4.839584 0.62459,-8.553347 0.66475,-7.795371 1.56071,-15.568676 2.54581,-23.329423 0.60645,-4.660086 1.22449,-9.317018 1.72632,-13.989792 0.13825,-1.287295 0.37139,-3.483481 0.46136,-4.891066 0.0271,-0.423243 0.0301,-0.847678 0.0452,-1.271516 -0.0143,-1.5241816 -0.18422,-0.722133 2.44522,-2.0867765 0.0763,-0.039573 -0.0594,0.161245 -0.0868,0.2426597 -0.16584,0.4924446 -0.33255,0.9842918 -0.55772,1.4542928 -0.39875,0.885745 -0.81844,1.761964 -1.19533,2.657468 -0.45895,1.090451 -0.62559,1.541066 -1.03337,2.683529 -0.19481,0.545802 -0.38154,1.094454 -0.57231,1.641681 -0.7816,2.248491 -0.49068,1.375029 -1.24362,3.693011 -0.66693,2.053216 -1.36113,4.108668 -1.74619,6.238238 -0.0313,0.240212 -0.0703,0.479544 -0.0938,0.720635 -0.0704,0.721563 0.018,1.453277 -0.0287,2.175862 -0.0354,2.897983 -0.0993,5.795721 -0.20433,8.692059 -0.21104,4.778616 -0.56501,9.548146 -1.18257,14.293332 -0.21422,2.106371 -0.38801,4.206242 -0.46343,6.322882 -0.0185,0.51866 -0.0261,1.037701 -0.0301,1.556674 -0.003,0.372115 0.2437,0.827402 0.009,1.11634 -0.65783,0.810522 -1.64919,1.280211 -2.473773,1.920317 0.109091,-0.363794 0.0452,-0.1074 0.106789,-0.73578 0.0917,-0.93558 0.196352,-1.869845 0.294732,-2.804731 0.171167,-1.222928 0.393822,-2.44212 0.488842,-3.673446 0.13651,-2.009497 0.1254,-4.028022 0.23569,-6.039033 0.13669,-4.140869 0.21658,-8.283302 0.27343,-12.42601 0.0759,-3.617595 0.22419,-7.232346 0.57368,-10.835389 0.19909,-2.884845 0.49267,-5.760093 0.812,-8.633801 0.0421,-0.348918 0.0678,-0.699716 0.11181,-1.048389 0.0703,-0.556534 0.26756,-1.088303 0.38126,-1.635677 0.27258,-1.29519 0.62935,-2.591813 0.67119,-3.919867 -0.0329,-0.174812 -0.0414,-0.356059 -0.0988,-0.524438 -0.38945,-1.142621 -2.19343,-1.952544 -3.12362,-2.526888 C 98.975165,9.2199935 98.330622,8.8710486 97.169982,8.444509 94.601968,7.500754 91.890709,7.1789493 89.165416,7.1767903 c -0.762164,0.025839 -1.525273,0.031666 -2.286495,0.07752 -4.794038,0.2887845 -9.582737,1.0908284 -14.042377,2.9271697 -1.467342,0.227399 -0.944874,0.06621 -3.105078,1.80992 -2.160567,1.744005 -4.117012,4.136676 -4.036452,7.094403 0.02868,1.052934 0.441095,2.059952 0.661644,3.089928 0.721095,1.182629 1.285057,2.476763 2.163283,3.547886 2.816339,3.434925 6.726611,6.276225 10.434826,8.577465 11.150713,6.919897 23.478353,11.668202 35.831873,15.924943 5.74247,1.66154 11.43607,3.502347 17.2274,4.984617 12.1379,3.10665 25.57529,5.883196 38.0611,7.141737 5.65479,0.569991 11.34951,0.814546 17.03281,0.773078 11.59648,-0.08461 15.6658,-1.253797 26.75087,-3.213397 6.14581,-1.721813 10.57929,-2.119672 15.40148,-6.79138 3.42935,-3.322333 4.05875,-7.623577 3.58914,-12.108865 -0.26704,-2.550578 -0.87252,-5.090949 -1.81235,-7.477051 -1.12651,-2.860061 -2.89198,-5.425165 -4.33796,-8.137747 -2.34435,-2.80017 -4.40008,-5.869983 -7.03334,-8.40051 -3.04151,-2.922854 -6.40637,-5.519605 -9.9046,-7.87678 -4.03913,-2.7216472 -8.2416,-5.2405454 -12.64654,-7.3186314 -9.51789,-4.4901851 -22.75676,-8.3499849 -32.87886,-10.5167049 -6.53084,-1.3979817 -13.17479,-2.2021927 -19.76218,-3.3032897 -6.91927,-0.46645 -13.82337,-1.313282 -20.75781,-1.399349 -11.85986,-0.147199 -28.072249,1.45232 -39.760289,3.285069 -6.434704,1.0089978 -12.877599,2.0894354 -19.179937,3.7338333 C 52.636321,-3.2319864 50.364233,-1.4221304 40.205681,3.8943229 34.718318,8.5952845 29.522602,11.490936 27.308516,18.809933 c -2.01262,6.653026 0.294656,10.665976 4.718521,15.538246 6.591252,7.259341 12.886893,9.966849 21.386699,14.980123 5.489866,2.39644 10.862667,5.08126 16.469593,7.189319 14.40303,5.415166 25.868087,8.369552 41.073381,11.069368 14.75881,2.620542 25.14417,3.72464 39.91212,3.460027 5.09638,-0.09132 10.16677,-0.750144 15.25015,-1.125214 3.97284,-1.00702 9.75803,-1.273792 11.75632,-6.063644 2.28021,-5.465615 -4.11586,-10.512687 -7.06771,-13.107969 -9.65768,-8.491085 -16.5272,-11.532619 -28.05611,-18.156886 -7.2442,-3.190486 -14.30225,-6.842427 -21.7326,-9.571453 -8.54467,-3.138298 -17.24792,-5.921411 -26.110133,-8.000279 -18.580073,-4.358457 -35.237491,-6.8109108 -54.221752,-3.694076 -8.080603,1.326672 -22.75598,8.775708 -30.386926,12.36518 -6.1097895,4.213506 -15.6909406,9.234993 -19.0693924,16.81762 -2.7973026,6.278293 0.8925911,10.940389 5.2731399,14.792002 7.4277926,6.530917 13.7331755,8.028536 22.9553315,11.756449 5.659196,1.456113 11.238088,3.27066 16.977585,4.368342 13.256948,2.535396 27.105412,3.370757 40.555929,3.756639 7.28197,0.208909 14.570836,0.237344 21.854638,0.107132 20.1864,-0.360868 22.06251,-0.927904 41.72959,-2.852756 2.39304,-0.43347 22.12005,-3.365926 26.7691,-5.997091 1.90098,-1.075875 3.59348,-2.926683 4.20904,-5.022471 1.67223,-5.693344 -4.16662,-10.113431 -7.54947,-12.923959 -3.25811,-2.706897 -6.91553,-4.893435 -10.37329,-7.34015 C 140.42289,34.16164 136.80489,31.62718 122.00597,26.609556 115.40896,24.372818 108.7059,22.391754 101.89572,20.927165 95.008408,19.445986 88.002479,18.518973 80.995524,17.789892 62.07126,15.820804 60.05568,16.594847 41.806127,17.53634 c -5.796135,0.721465 -11.623707,1.224205 -17.388404,2.164396 -10.100888,1.6474 -20.0545097,3.930547 -29.6416743,7.56678 -4.8297377,1.831827 -11.9030917,5.105307 -14.7159957,10.025907 -1.016838,1.778748 -0.494438,4.06782 -0.741657,6.101733 0.982143,2.002089 1.457261,4.346345 2.946428,6.006266 3.864003,4.307073 12.8402696,8.193527 17.71852149,9.940491 9.42059061,3.373631 22.40617251,6.299616 32.11713751,7.422756 6.914088,0.799664 13.89699,0.806236 20.845483,1.209352 7.803864,-0.166002 15.619418,-0.03983 23.411587,-0.498006 13.897909,-0.817182 37.721227,-3.701714 51.179417,-6.087433 10.21975,-1.811642 33.61822,-6.722449 44.17209,-11.360605 4.36724,-1.919285 8.03074,-5.15099 12.04611,-7.726487 1.44435,-2.777794 3.72978,-5.261192 4.33305,-8.333383 1.47748,-7.524231 -2.74963,-11.837774 -7.9853,-16.403181 -3.39289,-2.958529 -7.14679,-5.517406 -11.03747,-7.7817222 -13.053,-7.5966384 -19.17912,-8.80211161 -33.87753,-13.83181 -7.39406,-1.602899 -14.70635,-3.6453191 -22.18217,-4.808697 C 95.217362,-11.625509 83.068913,-11.901778 65.18295,-10.552712 49.3264,-9.3567164 39.777736,-7.7335429 24.944357,-3.2111508 20.758632,-1.935009 16.754453,-0.12556847 12.659501,1.4172227 8.2354332,5.0899483 2.4369513,8.0510281 1.8580026,14.699407 c -0.6008314,6.899669 4.8733246,11.420005 9.6216494,15.11669 10.246255,7.976951 17.135683,10.175769 29.263268,15.764774 7.207374,2.314652 14.276519,5.114758 21.622125,6.943952 17.428779,4.34009 34.844521,6.233978 52.743365,7.236188 9.29545,0.520478 18.61426,0.772594 27.92306,0.623255 22.15548,-0.355436 26.69709,-1.685539 48.02371,-4.793774 10.25974,-2.865562 18.37309,-2.898259 25.16767,-11.795111 1.93871,-2.538558 3.35398,-5.814621 3.26917,-9.00769 -0.096,-3.615147 -1.98705,-7.028513 -3.77856,-10.170009 C 209.61018,13.915269 204.30851,11.056018 194.77465,3.0269952 189.27013,-0.37579982 184.013,-4.2158573 178.2611,-7.1813895 166.20823,-13.395547 148.88044,-20.081088 135.33296,-21.465842 c -13.3788,-1.367513 -32.79553,1.854514 -45.358205,6.244343 -6.516426,2.277063 -12.41048,6.0477533 -18.615721,9.0716299 C 66.377182,-1.6522477 60.823659,2.2835726 56.413479,7.3429949 48.865818,16.001777 41.001272,28.71358 41.147777,40.911512 c 0.07006,5.833134 2.309149,11.566499 4.862428,16.811601 6.835103,14.041083 15.627368,20.126973 26.869871,30.576599 6.624,3.823171 12.930153,8.259408 19.872,11.46951 7.149412,3.306088 14.666924,5.816168 22.234464,8.001698 15.13096,4.36984 28.6521,6.80301 44.38525,6.06027 13.5529,-0.63982 19.19173,-3.28245 31.45815,-7.27495 9.44789,-6.107 14.68531,-7.778007 20.37919,-17.790798 4.0358,-7.097043 5.62845,-16.355237 3.73609,-24.360827 -2.36487,-10.004483 -8.30984,-15.554716 -14.49023,-23.278944 -4.0865,-3.13981 -7.77516,-6.880018 -12.25949,-9.419433 -4.66273,-2.640436 -9.7826,-4.464564 -14.924,-5.974189 -18.20263,-5.344683 -37.71637,-5.229919 -56.30298,-2.259928 -6.93449,1.108075 -13.71332,3.033938 -20.569978,4.550908 -6.667299,2.32085 -13.467215,4.291004 -20.001891,6.962555 C 64.531292,39.836465 53.659592,45.681968 43.641179,53.74968 37.061703,59.048057 28.12747,67.722683 25.62594,76.509884 c -0.934845,3.283858 0.159484,6.826798 0.239226,10.240195 1.589199,3.304882 2.605344,6.952811 4.767596,9.914644 5.763797,7.895207 15.024563,13.961667 23.415765,18.406367 12.049138,6.38225 27.708198,12.03964 40.695239,15.56037 8.105354,2.19733 16.404974,3.60235 24.607474,5.40353 20.17886,0.91148 24.3394,2.37419 43.62674,-1.36061 9.03183,-1.74892 20.90991,-4.89714 28.46609,-11.11562 7.5822,-6.23987 8.58895,-11.33601 12.33118,-19.93667 -0.1677,-3.956976 0.56828,-8.058065 -0.50311,-11.870928 C 201.02321,83.74762 192.52166,73.278518 186.89534,67.929995 177.4412,58.942657 165.7887,51.540497 153.85462,46.389652 146.63495,43.273585 138.96251,41.334036 131.51645,38.806228 122.95032,36.942151 114.5085,34.366932 105.81803,33.213992 86.39286,30.636916 73.473965,31.23294 54.561065,35.660798 42.365025,38.516115 25.093743,44.393683 14.697761,52.340737 10.142729,55.822765 6.9335287,60.779223 3.0514126,64.998464 c -5.7319664,12.057499 -9.7541719,16.326588 -8.5533483,30.259652 0.4625684,5.367144 1.8635109,10.776764 4.3118464,15.575294 5.0017305,9.80296 17.1835243,20.57102 25.9590713,26.37838 6.032746,3.99227 12.763492,6.81338 19.145236,10.22007 17.16282,5.05286 25.97627,8.88225 44.120961,9.28195 17.766361,0.39137 35.125791,-4.69766 49.317501,-15.47125 4.08351,-3.09999 7.37,-7.12904 11.055,-10.69355 2.09088,-4.03323 4.74524,-7.82117 6.27266,-12.09969 2.33896,-6.5518 3.32005,-17.11753 2.08127,-24.037198 -1.13205,-6.323555 -5.01231,-13.607241 -9.38137,-18.287217 -2.27873,-2.44089 -5.2184,-4.167793 -7.8276,-6.251689 -8.38044,-3.171026 -10.63814,-5.198194 -19.98457,-3.909927 -3.66237,0.504803 -7.15132,1.925835 -10.60858,3.235489 -7.14863,2.707994 -13.70774,6.552752 -19.77707,11.196491 -3.257007,2.491989 -6.127808,5.45183 -9.191714,8.177745 -2.3319,2.942629 -4.896755,5.714812 -6.9957,8.827891 -6.73172,9.984255 -11.282315,22.614605 -7.562699,34.633375 0.777346,2.51174 2.247024,4.7543 3.370535,7.13145 2.083996,1.53044 3.989649,3.33949 6.25199,4.59134 5.180267,2.86645 11.7235,4.64032 17.574874,5.11124 3.533846,0.2844 7.10239,0.12362 10.634214,-0.18495 3.90684,-0.34134 7.80322,-0.91494 11.63271,-1.7605 4.11155,-0.90784 8.09363,-2.3258 12.14045,-3.4887 3.5309,-1.45678 7.19954,-2.61652 10.59271,-4.37035 8.03044,-4.15072 15.41692,-9.2605 21.51717,-16.00443 2.91456,-3.22209 5.58262,-6.73229 7.64685,-10.55531 1.97199,-3.6522 3.56357,-7.59148 4.35176,-11.66653 0.74797,-3.867117 0.12664,-7.87656 0.18997,-11.814841 -2.45062,-11.134373 -2.16624,-14.19367 -8.41851,-24.239558 -2.5419,-4.084209 -5.4986,-7.951139 -8.86238,-11.390177 -7.59818,-7.76818 -16.72819,-13.699122 -26.87558,-17.595525 -5.57651,-2.141273 -11.53145,-3.123374 -17.29718,-4.685061 -6.14568,-0.206762 -12.31793,-1.227455 -18.437039,-0.620284 -6.046078,0.599921 -11.950049,2.350897 -17.734584,4.20942 -11.833952,3.802147 -22.647978,9.349406 -32.395434,17.136803 -4.724181,3.774223 -9.20881,7.962495 -12.907259,12.74623 -3.271527,4.231532 -5.194724,9.351465 -7.792085,14.027198 -0.06768,4.479991 -1.247489,9.082907 -0.203044,13.439973 1.008649,4.207743 3.41407,8.083082 6.163334,11.424342 7.420107,9.01786 15.491965,12.36335 26.622004,15.36015 17.276024,4.65162 21.653968,3.32473 39.704031,3.1423 7.095027,-1.08941 14.253196,-1.8264 21.285076,-3.26823 14.762,-3.02685 28.99742,-7.38339 42.87794,-13.26096 11.16519,-4.7278 24.29727,-11.564963 33.53705,-19.668065 3.73054,-3.27161 6.45695,-7.535871 9.68542,-11.303805 1.75863,-3.604646 4.19319,-6.952069 5.27588,-10.813938 1.2979,-4.629534 0.39939,-11.949726 -2.53164,-15.98689 -1.47888,-2.036992 -3.72087,-3.447886 -5.88788,-4.728712 -6.72881,-3.977111 -11.49794,-4.384861 -19.19409,-6.183186 -13.58991,-1.426678 -16.22154,-2.328764 -30.57079,-0.974823 -12.89998,1.217192 -26.5616,4.099147 -38.77967,8.363559 -15.544068,5.42527 -24.301049,10.803225 -38.790836,18.511895 -11.947855,8.873948 -22.140753,14.563199 -30.232638,27.418924 -5.03025,7.99165 -6.87511,16.751211 -3.73952,25.737911 1.159838,3.32414 2.998798,6.70238 5.812171,8.81899 2.915142,2.19317 6.938515,2.25593 10.407774,3.38389 4.08128,0.80103 8.131302,1.78218 12.24384,2.40309 9.939559,1.50066 16.041301,1.70876 26.023265,1.80965 4.025876,0.0407 8.053287,0.002 12.077714,-0.11324 6.58001,-0.18865 11.4794,-0.65452 17.95484,-1.17137 2.0886,-0.26784 4.18859,-0.45826 6.26579,-0.80352 1.22459,-0.20354 2.42757,-0.52457 3.62796,-0.84094 2.29975,-0.60612 4.5525,-1.45243 6.62295,-2.628 0,0 -2.17347,1.75845 -2.17347,1.75845 z"
       inkscape:connector-curvature="0" />
    <path
       style="opacity:0;fill:url(#meshgradient4683);fill-opacity:1;stroke-width:0.26458332"
       id="path4573"
       d="m 147.02474,55.731309 c -3.96646,-0.05893 -7.93108,0.134802 -11.89355,0.284493 -8.42918,0.2868 -16.86461,0.31999 -25.29786,0.327848 -1.52713,-0.0039 -3.05432,0.0013 -4.58141,-0.01177 -3.11259,-0.02651 -5.541983,-0.06902 -8.64309,-0.21671 -3.946573,-0.18796 -7.883358,-0.5383 -11.821324,-0.850252 -5.367239,-0.405116 -10.742038,-0.705463 -16.118877,-0.948843 -0.255384,0.02061 -0.979781,0.203264 -0.766148,0.06182 0.814877,-0.539527 1.672957,-1.097817 2.629982,-1.295855 0.54103,-0.111958 1.065998,0.291682 1.603425,0.419828 0.797211,0.190092 1.59521,0.37897 2.399834,0.534725 4.000712,0.774433 4.224764,0.688478 8.816803,1.195573 2.464001,0.169839 4.926804,0.35805 7.392001,0.509513 7.056344,0.433547 19.797474,1.09609 26.417924,1.443051 17.54228,0.91934 35.08522,1.816256 52.63081,2.669672 16.33211,0.768906 32.66543,1.518666 49.00146,2.200432 1.48994,0.06218 5.45425,-0.949222 4.47042,0.171431 -1.26754,1.443813 -3.76307,0.777362 -5.6446,1.166043 -2.49226,-0.139261 -4.98324,-0.303716 -7.47678,-0.417783 -7.64177,-0.349581 -11.13988,-0.37683 -18.89987,-0.610166 -3.86058,-0.116083 -7.72043,-0.255693 -11.58098,-0.372695 -11.06311,-0.335285 -12.79601,-0.361796 -23.76628,-0.629954 -9.45463,-0.205147 -18.91039,-0.383006 -28.36699,-0.468127 -1.92803,-0.01736 -7.31718,-0.08958 -9.65023,0.07382 -0.7341,0.05142 -1.45572,0.21702 -2.18358,0.325528 0.65114,-0.232503 1.26417,-0.752226 1.9534,-0.697511 0.57026,0.04527 0.91238,0.699519 1.41898,0.965227 1.12432,0.589703 2.27663,1.132049 3.4594,1.593469 1.80151,0.702799 3.62416,1.362006 5.48296,1.895104 6.90695,1.980883 12.4835,2.95429 19.61279,4.408993 11.97906,2.26555 24.0383,4.062852 36.08692,5.90749 5.11266,0.782746 10.49049,1.563767 15.60821,2.479746 1.38672,0.248198 2.76377,0.547624 4.14565,0.821439 0.52683,0.197911 2.06516,0.30771 1.58049,0.593735 -4.65664,2.748079 -9.31042,2.085295 -14.496,1.977819 -5.50432,-0.114086 -11.00527,-0.356008 -16.5074,-0.548833 -44.2176,-1.549628 2.15998,-0.02946 -49.04504,-1.6626 C 98.11492,78.280452 71.229158,77.688997 44.338697,77.41006 32.507941,77.287336 21.533273,77.232967 9.779828,77.310082 c -3.4201618,0.02244 -6.8398976,0.08857 -10.25984661,0.13285 12.55900761,-4.51063 -10.91656139,1.556113 -8.32529769,0.546314 4.8111788,-1.874882 4.3899087,-0.97201 9.9085733,-0.516625 6.795033,0.56071 14.583151,0.881097 21.299712,1.215652 9.741252,0.51108 20.342799,1.07597 30.05804,1.548357 5.473882,0.266158 10.949638,0.493308 16.423163,0.766684 5.835851,0.291467 11.669948,0.617037 17.504799,0.927835 25.646979,1.36611 7.875489,0.438073 31.813159,1.675834 9.34309,0.491612 18.69022,0.901486 28.03441,1.3707 1.28861,0.06471 2.57748,0.125717 3.86523,0.205783 0.50039,0.03111 1.92467,-0.136599 1.49864,0.127717 -1.34144,0.832262 -2.94997,1.125233 -4.42496,1.687848 -1.78477,-0.0032 -3.56956,-0.0019 -5.35431,-0.0096 -7.74161,-0.03364 -10.3926,-0.04315 -18.5952,-0.254537 -4.76016,-0.122671 -9.5189,-0.295209 -14.27864,-0.433059 C 92.77883,85.833542 92.772218,85.853338 76.51085,85.461656 63.6663,85.184005 50.821235,84.925952 37.973743,84.841478 c -1.670971,-0.01098 -10.122829,-0.08001 -12.647528,0.06658 -0.778559,0.0452 -1.543419,0.225041 -2.315128,0.337563 1.849017,-0.211524 3.688903,-0.738931 5.547051,-0.634571 2.881746,0.161843 5.676696,1.067617 8.540678,1.425768 5.483585,0.685739 10.984746,1.234697 16.491035,1.70453 15.040025,1.283322 32.08592,2.213261 47.074319,2.893336 8.80715,0.39961 17.61924,0.68149 26.42886,1.022233 39.48026,1.25635 78.96935,2.217865 118.45748,3.189208 -12.07267,2.805798 12.5322,-0.911669 9.5325,0.137301 -5.99159,2.095203 -9.36026,1.002291 -15.94,0.617431 -14.39565,-0.842031 -17.1971,-0.930431 -32.48578,-1.660578 -38.21201,-1.803135 -76.45709,-2.847448 -114.705445,-3.468923 -5.287349,-0.08591 -10.575083,-0.145946 -15.862628,-0.218921 -3.046968,-0.0313 -16.281791,-0.18119 -20.442742,-0.180443 -1.703642,2.64e-4 -3.557149,0.759163 -5.110573,0.05969 -0.873138,-0.393158 1.66306,-1.115549 2.61833,-1.181894 1.811438,-0.125806 3.60427,0.448186 5.411517,0.624205 3.315134,0.322887 6.636203,0.581594 9.954303,0.87239 4.473241,0.309639 8.944647,0.646999 13.419719,0.92892 9.03147,0.568965 25.591919,1.439828 34.223759,1.907744 15.98636,0.866592 31.97227,1.737746 47.95628,2.646711 6.25334,0.399915 10.6029,0.64529 16.62012,1.12957 1.23015,0.09901 2.45847,0.219774 3.68663,0.340977 0.22391,0.02209 0.89157,0.05512 0.66912,0.08888 -9.68407,1.469808 -6.32522,1.145059 -16.55745,0.06218 -17.42135,-1.850585 -34.86199,-3.51514 -52.3145,-5.04305 C 101.0426,91.17926 90.362253,90.291487 75.191921,89.247661 68.877957,88.813218 62.559196,88.451488 56.242836,88.053401 50.469873,87.7548 44.696914,87.456199 38.923952,87.157601 c 0,0 1.298059,-0.932455 1.298059,-0.932455 v 0 c 5.741291,0.322003 11.482586,0.644004 17.22388,0.966007 18.137684,1.204743 20.63638,1.31454 39.138267,2.780776 24.594442,1.949058 49.159022,4.250161 73.744492,6.304862 2.98751,0.264268 6.03623,0.135662 8.96253,0.792808 1.31418,0.295119 2.35203,1.314143 3.50684,2.007386 0.14505,0.08707 -0.30533,-0.158586 -0.47231,-0.185725 -1.16371,-0.189132 -2.33466,-0.333922 -3.50677,-0.460967 -5.60274,-0.60729 -10.52403,-0.94343 -16.23875,-1.396519 -12.64118,-0.85291 -15.84152,-1.096967 -29.18492,-1.864667 -6.15106,-0.353893 -12.30308,-0.69188 -18.4563,-1.005874 -16.045944,-0.818814 -32.10238,-1.450689 -48.136799,-2.488967 -3.406307,-0.230259 -6.814693,-0.431557 -10.21892,-0.690777 -1.931117,-0.147047 -4.103867,0.431734 -5.786085,-0.527942 -0.720956,-0.411292 0.938006,-1.574133 1.742366,-1.778928 1.589378,-0.404672 3.279872,0.0468 4.919564,0.08274 6.67185,0.146232 13.342025,0.363913 20.014327,0.491392 43.482517,1.066805 86.964277,2.186389 130.430997,3.791638 6.08088,0.237876 12.16176,0.475752 18.24264,0.713629 4.90801,0.200834 9.81576,0.408212 14.72404,0.602506 3.3457,0.13244 6.74262,-0.216133 10.03786,0.377698 0.88897,0.160197 2.28602,0.930952 2.02854,1.796762 -0.86341,2.903352 -11.67193,-8.461254 -9.07493,-0.468966 C 229.3075,95.460115 214.75107,94.91238 200.19088,94.443694 175.57178,93.651212 150.94746,93.032783 126.32936,92.20737 105.02748,91.427352 95.64916,91.176469 74.546853,90.046354 67.114551,89.648325 59.684139,89.20786 52.259258,88.689486 46.599556,88.294349 40.93978,87.877342 35.295149,87.305961 c -2.968096,-0.300448 -6.058403,-0.218884 -8.864726,-1.231014 -0.859497,-0.309985 -0.850381,-1.617453 -1.275571,-2.426181 0.72535,-0.06645 1.447896,-0.180954 2.17605,-0.199337 2.349733,-0.05933 10.91819,0.128185 12.348697,0.156591 12.727739,0.252746 25.453438,0.591362 38.180364,0.880343 3.755202,0.08821 28.714447,0.676947 32.550897,0.757573 12.96977,0.272571 25.95052,0.578292 38.92122,0.172411 0.013,0.491413 0.39386,1.134099 0.0389,1.474239 -0.32973,0.316021 -0.89898,-0.167388 -1.35325,-0.214622 -1.23526,-0.128439 -2.47417,-0.22013 -3.71268,-0.312118 -9.17271,-0.68127 -18.36025,-1.146067 -27.53947,-1.725107 C 106.71598,84.059854 95.09145,83.379129 85.106419,82.852931 63.679842,81.723777 42.240647,80.855814 20.808808,79.835668 14.674681,79.592521 5.5141799,79.273677 -0.86486943,78.874349 -2.8502596,78.750066 -4.9858241,79.174762 -6.8128345,78.387836 -7.4284979,78.122657 -7.1141377,76.865005 -6.647653,76.383599 -4.8205141,74.498014 1.0614073,81.261187 1.2271004,76.2017 42.727414,76.448059 84.21603,77.589009 125.7049,78.515077 c 9.19049,0.213529 18.38124,0.4158 27.57146,0.640588 7.36435,0.180128 14.72712,0.426884 22.0922,0.574156 5.6545,0.11307 11.31001,0.218205 16.96562,0.206859 2.96103,-0.006 5.92768,-0.494239 8.87932,-0.258712 0.63543,0.0507 1.34175,0.497134 1.56959,1.092481 0.18443,0.481951 -0.93495,-0.437108 -1.40242,-0.655662 -1.33269,-0.304609 -2.6582,-0.642577 -3.99808,-0.913828 -4.94183,-1.000451 -10.41059,-1.871845 -15.33113,-2.668892 -12.03792,-1.949942 -24.10105,-3.748408 -36.10478,-5.90546 -3.63679,-0.710782 -7.28515,-1.364742 -10.91038,-2.132346 -6.01244,-1.273075 -9.23456,-1.932281 -14.63964,-3.924729 -1.22928,-0.453141 -2.45254,-0.942215 -3.60626,-1.562999 -0.6205,-0.33387 -1.89416,-0.61027 -1.68087,-1.281838 0.3439,-1.082847 1.82285,-1.356661 2.73427,-2.034992 0.70093,-0.0764 1.39833,-0.199493 2.10279,-0.229187 2.26473,-0.09547 7.59063,0.0501 9.43864,0.08984 9.37737,0.201671 18.75393,0.441383 28.13136,0.640607 15.7102,0.407074 7.78685,0.197837 23.77005,0.628126 12.81174,0.335952 25.62574,0.596704 38.43332,1.076195 0.49924,0.600631 2.18558,1.431949 1.49772,1.801892 -1.26391,0.679765 -2.86303,-0.203438 -4.29507,-0.297408 -2.4341,-0.159721 -4.8683,-0.318574 -7.30332,-0.463663 -13.68731,-0.815552 -27.38257,-1.492375 -41.07659,-2.182403 -17.60677,-0.863229 -35.21402,-1.722882 -52.82342,-2.531096 -4.95118,-0.227246 -9.90277,-0.445625 -14.85469,-0.655977 -3.996291,-0.169756 -7.994402,-0.29691 -11.989901,-0.484343 -2.50757,-0.117637 -5.012433,-0.287221 -7.518651,-0.430832 -4.67301,-0.452533 -4.926227,-0.36358 -9.002996,-1.099023 -0.821513,-0.148202 -1.638141,-0.324052 -2.450872,-0.514607 -0.587711,-0.137798 -1.812039,0.130252 -1.748872,-0.470083 0.208351,-1.980157 1.625171,-1.830832 2.730709,-1.843058 5.331155,0.334973 10.665563,0.625229 15.990731,1.049179 3.92667,0.319558 7.851963,0.671052 11.787849,0.860488 3.080603,0.148273 5.526853,0.193937 8.618543,0.224232 1.52366,0.01492 3.04743,0.01204 4.57114,0.01805 8.46548,-0.0026 16.93263,-0.08209 25.39259,-0.409319 4.01542,-0.16665 8.03167,-0.363458 12.05107,-0.386106 0,0 -2.27119,1.650119 -2.27119,1.650119 z"
       inkscape:connector-curvature="0" />
    <use
       id="use4575"
       inkscape:spray-origin="#path4573"
       xlink:href="#path4573"
       x="0"
       y="0"
       width="100%"
       height="100%"
       transform="translate(-187.65889,-13.106511)" />
    <use
       id="use4577"
       inkscape:spray-origin="#path4573"
       xlink:href="#path4573"
       x="0"
       y="0"
       width="100%"
       height="100%"
       transform="translate(-192.98997,-11.39171)" />
    <use
       id="use4579"
       inkscape:spray-origin="#path4573"
       xlink:href="#path4573"
       x="0"
       y="0"
       width="100%"
       height="100%"
       transform="translate(-186.02697,-14.944908)" />
    <use
       id="use4581"
       inkscape:spray-origin="#path4573"
       xlink:href="#path4573"
       x="0"
       y="0"
       width="100%"
       height="100%"
       transform="translate(-183.50632,-18.349843)" />
    <use
       id="use4583"
       inkscape:spray-origin="#path4573"
       xlink:href="#path4573"
       x="0"
       y="0"
       width="100%"
       height="100%"
       transform="translate(-175.74202,-14.756792)" />
    <use
       id="use4585"
       inkscape:spray-origin="#path4573"
       xlink:href="#path4573"
       x="0"
       y="0"
       width="100%"
       height="100%"
       transform="translate(-181.89535,-9.7340346)" />
    <use
       id="use4587"
       inkscape:spray-origin="#path4573"
       xlink:href="#path4573"
       x="0"
       y="0"
       width="100%"
       height="100%"
       transform="translate(-163.99565,-16.902436)" />
    <use
       id="use4589"
       inkscape:spray-origin="#path4573"
       xlink:href="#path4573"
       x="0"
       y="0"
       width="100%"
       height="100%"
       transform="translate(-161.39541,-7.5534144)" />
    <use
       id="use4591"
       inkscape:spray-origin="#path4573"
       xlink:href="#path4573"
       x="0"
       y="0"
       width="100%"
       height="100%"
       transform="translate(-157.10782,-10.565486)" />
    <use
       id="use4593"
       inkscape:spray-origin="#path4573"
       xlink:href="#path4573"
       x="0"
       y="0"
       width="100%"
       height="100%"
       transform="translate(-150.82009,-11.668339)" />
    <use
       id="use4595"
       inkscape:spray-origin="#path4573"
       xlink:href="#path4573"
       x="0"
       y="0"
       width="100%"
       height="100%"
       transform="translate(-143.20863,-12.460755)" />
    <use
       id="use4597"
       inkscape:spray-origin="#path4573"
       xlink:href="#path4573"
       x="0"
       y="0"
       width="100%"
       height="100%"
       transform="translate(-140.69095,-14.063016)" />
    <use
       id="use4599"
       inkscape:spray-origin="#path4573"
       xlink:href="#path4573"
       x="0"
       y="0"
       width="100%"
       height="100%"
       transform="translate(-131.87187,-12.478322)" />
    <use
       id="use4601"
       inkscape:spray-origin="#path4573"
       xlink:href="#path4573"
       x="0"
       y="0"
       width="100%"
       height="100%"
       transform="translate(-125.86479,-13.345774)" />
    <use
       id="use4603"
       inkscape:spray-origin="#path4573"
       xlink:href="#path4573"
       x="0"
       y="0"
       width="100%"
       height="100%"
       transform="translate(-123.66238,-11.565666)" />
    <use
       id="use4605"
       inkscape:spray-origin="#path4573"
       xlink:href="#path4573"
       x="0"
       y="0"
       width="100%"
       height="100%"
       transform="translate(-120.30107,-17.286172)" />
    <use
       id="use4607"
       inkscape:spray-origin="#path4573"
       xlink:href="#path4573"
       x="0"
       y="0"
       width="100%"
       height="100%"
       transform="translate(-112.75275,-13.859056)" />
    <use
       id="use4609"
       inkscape:spray-origin="#path4573"
       xlink:href="#path4573"
       x="0"
       y="0"
       width="100%"
       height="100%"
       transform="translate(-115.59141,-7.7580005)" />
    <use
       id="use4611"
       inkscape:spray-origin="#path4573"
       xlink:href="#path4573"
       x="0"
       y="0"
       width="100%"
       height="100%"
       transform="translate(-106.46427,-11.085474)" />
    <use
       id="use4613"
       inkscape:spray-origin="#path4573"
       xlink:href="#path4573"
       x="0"
       y="0"
       width="100%"
       height="100%"
       transform="translate(-105.92002,-11.723945)" />
    <use
       id="use4615"
       inkscape:spray-origin="#path4573"
       xlink:href="#path4573"
       x="0"
       y="0"
       width="100%"
       height="100%"
       transform="translate(-94.058785,-3.8089723)" />
    <use
       id="use4617"
       inkscape:spray-origin="#path4573"
       xlink:href="#path4573"
       x="0"
       y="0"
       width="100%"
       height="100%"
       transform="translate(-90.374374,-12.891302)" />
    <use
       id="use4619"
       inkscape:spray-origin="#path4573"
       xlink:href="#path4573"
       x="0"
       y="0"
       width="100%"
       height="100%"
       transform="translate(-74.454722,-13.541501)" />
    <use
       id="use4621"
       inkscape:spray-origin="#path4573"
       xlink:href="#path4573"
       x="0"
       y="0"
       width="100%"
       height="100%"
       transform="translate(-69.787856,-5.2707212)" />
    <use
       id="use4623"
       inkscape:spray-origin="#path4573"
       xlink:href="#path4573"
       x="0"
       y="0"
       width="100%"
       height="100%"
       transform="translate(-70.672953,-4.7587109)" />
    <use
       id="use4625"
       inkscape:spray-origin="#path4573"
       xlink:href="#path4573"
       x="0"
       y="0"
       width="100%"
       height="100%"
       transform="translate(-62.668428,-3.2910426)" />
    <use
       id="use4627"
       inkscape:spray-origin="#path4573"
       xlink:href="#path4573"
       x="0"
       y="0"
       width="100%"
       height="100%"
       transform="translate(-65.09273,-5.2314344)" />
    <use
       id="use4629"
       inkscape:spray-origin="#path4573"
       xlink:href="#path4573"
       x="0"
       y="0"
       width="100%"
       height="100%"
       transform="translate(-80.754093,-5.9807808)" />
    <use
       id="use4631"
       inkscape:spray-origin="#path4573"
       xlink:href="#path4573"
       x="0"
       y="0"
       width="100%"
       height="100%"
       transform="translate(-85.364812,-1.8541162)" />
    <use
       id="use4633"
       inkscape:spray-origin="#path4573"
       xlink:href="#path4573"
       x="0"
       y="0"
       width="100%"
       height="100%"
       transform="translate(-84.715214,-7.9878976)" />
    <use
       id="use4635"
       inkscape:spray-origin="#path4573"
       xlink:href="#path4573"
       x="0"
       y="0"
       width="100%"
       height="100%"
       transform="translate(-83.47821,-6.9414371)" />
    <use
       id="use4637"
       inkscape:spray-origin="#path4573"
       xlink:href="#path4573"
       x="0"
       y="0"
       width="100%"
       height="100%"
       transform="translate(-90.040817,-3.8492552)" />
    <use
       id="use4639"
       inkscape:spray-origin="#path4573"
       xlink:href="#path4573"
       x="0"
       y="0"
       width="100%"
       height="100%"
       transform="translate(-96.178172,-6.2897714)" />
    <use
       id="use4641"
       inkscape:spray-origin="#path4573"
       xlink:href="#path4573"
       x="0"
       y="0"
       width="100%"
       height="100%"
       transform="translate(-96.394361,-6.926342)" />
    <use
       id="use4643"
       inkscape:spray-origin="#path4573"
       xlink:href="#path4573"
       x="0"
       y="0"
       width="100%"
       height="100%"
       transform="translate(-97.714251,-9.2525174)" />
    <use
       id="use4645"
       inkscape:spray-origin="#path4573"
       xlink:href="#path4573"
       x="0"
       y="0"
       width="100%"
       height="100%"
       transform="translate(-104.8376,-4.6064494)" />
    <use
       id="use4647"
       inkscape:spray-origin="#path4573"
       xlink:href="#path4573"
       x="0"
       y="0"
       width="100%"
       height="100%"
       transform="translate(-90.414628,-8.8089406)" />
    <use
       id="use4649"
       inkscape:spray-origin="#path4573"
       xlink:href="#path4573"
       x="0"
       y="0"
       width="100%"
       height="100%"
       transform="translate(-74.077773,-6.6124963)" />
    <use
       id="use4651"
       inkscape:spray-origin="#path4573"
       xlink:href="#path4573"
       x="0"
       y="0"
       width="100%"
       height="100%"
       transform="translate(-57.218298,-5.9348035)" />
    <use
       id="use4653"
       inkscape:spray-origin="#path4573"
       xlink:href="#path4573"
       x="0"
       y="0"
       width="100%"
       height="100%"
       transform="translate(-46.683039,-3.2287399)" />
    <use
       id="use4655"
       inkscape:spray-origin="#path4573"
       xlink:href="#path4573"
       x="0"
       y="0"
       width="100%"
       height="100%"
       transform="translate(-14.825487,-4.0767263)" />
    <use
       id="use4657"
       inkscape:spray-origin="#path4573"
       xlink:href="#path4573"
       x="0"
       y="0"
       width="100%"
       height="100%"
       transform="translate(-19.364493,-8.2189544)" />
    <use
       id="use4659"
       inkscape:spray-origin="#path4573"
       xlink:href="#path4573"
       x="0"
       y="0"
       width="100%"
       height="100%"
       transform="translate(-24.820356,-9.2314702)" />
    <use
       id="use4661"
       inkscape:spray-origin="#path4573"
       xlink:href="#path4573"
       x="0"
       y="0"
       width="100%"
       height="100%"
       transform="translate(-39.121196,-1.9590675)" />
    <use
       id="use4663"
       inkscape:spray-origin="#path4573"
       xlink:href="#path4573"
       x="0"
       y="0"
       width="100%"
       height="100%"
       transform="translate(-104.80214,-7.8237494)" />
    <use
       id="use4665"
       inkscape:spray-origin="#path4573"
       xlink:href="#path4573"
       x="0"
       y="0"
       width="100%"
       height="100%"
       transform="translate(-101.259,-9.4393971)" />
    <use
       id="use4667"
       inkscape:spray-origin="#path4573"
       xlink:href="#path4573"
       x="0"
       y="0"
       width="100%"
       height="100%"
       transform="translate(-26.165867,-14.19723)" />
    <use
       id="use4669"
       inkscape:spray-origin="#path4573"
       xlink:href="#path4573"
       x="0"
       y="0"
       width="100%"
       height="100%"
       transform="translate(-2.07042,-15.087902)" />
    <use
       id="use4671"
       inkscape:spray-origin="#path4573"
       xlink:href="#path4573"
       x="0"
       y="0"
       width="100%"
       height="100%"
       transform="translate(24.430652,-5.535192)" />
    <use
       id="use4673"
       inkscape:spray-origin="#path4573"
       xlink:href="#path4573"
       x="0"
       y="0"
       width="100%"
       height="100%"
       transform="translate(26.657998,-3.832087)" />
    <use
       id="use4675"
       inkscape:spray-origin="#path4573"
       xlink:href="#path4573"
       x="0"
       y="0"
       width="100%"
       height="100%"
       transform="translate(-7.1676976,-6.0765643)" />
    <use
       id="use4677"
       inkscape:spray-origin="#path4573"
       xlink:href="#path4573"
       x="0"
       y="0"
       width="100%"
       height="100%"
       transform="translate(-32.799009,-6.8211182)" />
    <use
       id="use4679"
       inkscape:spray-origin="#path4573"
       xlink:href="#path4573"
       x="0"
       y="0"
       width="100%"
       height="100%"
       transform="translate(-44.551677,-7.7459644)" />
    <use
       id="use4681"
       inkscape:spray-origin="#path4573"
       xlink:href="#path4573"
       x="0"
       y="0"
       width="100%"
       height="100%"
       transform="translate(-48.191286,0.15556571)" />
    <path
       style="fill:none;stroke:#000000;stroke-width:0.26458332px;stroke-linecap:butt;stroke-linejoin:miter;stroke-opacity:1"
       d="m 75.028268,110.27976 h 59.326872 v 9.26042 l -59.326872,-0.18899 z"
       id="path4711"
       inkscape:connector-curvature="0" />
    <path
       style="fill:#000000;stroke:#000000;stroke-width:0.26458332px;stroke-linecap:butt;stroke-linejoin:miter;stroke-opacity:1"
       d="m 92.415176,110.27976 v 9.07143 H 82.209819 v -9.07143 z"
       id="path4721"
       inkscape:connector-curvature="0" />
    <path
       style="fill:none;stroke:#000000;stroke-width:0.26458332px;stroke-linecap:butt;stroke-linejoin:miter;stroke-opacity:1"
       d="m 75.028268,201.56101 v 21.73363 h 29.482152 v -21.73363 z"
       id="path4723"
       inkscape:connector-curvature="0" />
    <path
       style="fill:#000000;stroke:#000000;stroke-width:0.26458332px;stroke-linecap:butt;stroke-linejoin:miter;stroke-opacity:1"
       d="m 75.028268,219.51488 h 29.482152 v 3.77976 H 75.028268 Z"
       id="path4727"
       inkscape:connector-curvature="0" />
    <path
       style="fill:#000000;stroke:#000000;stroke-width:0.26458332px;stroke-linecap:butt;stroke-linejoin:miter;stroke-opacity:1"
       d="M 75.028268,210.63244 H 46.680059 l 3.401784,-3.59078 -0.377975,7.37054 -3.023809,-3.77976 H 75.028268 46.680059 Z"
       id="path4737"
       inkscape:connector-curvature="0" />
    <path
       style="fill:#000000;stroke:#000000;stroke-width:0.26458332px;stroke-linecap:butt;stroke-linejoin:miter;stroke-opacity:1"
       d="M 75.028269,114.62648 H 46.68006 l 3.401784,-3.59078 -0.377975,7.37054 -3.023809,-3.77976 H 75.028269 46.68006 Z"
       id="path4737-7"
       inkscape:connector-curvature="0" />
    <path
       style="fill:#000000;stroke:#000000;stroke-width:0.26458332px;stroke-linecap:butt;stroke-linejoin:miter;stroke-opacity:1"
       d="M 75.028269,26.272843 H 46.68006 l 3.401784,-3.59078 -0.377975,7.37054 -3.023809,-3.77976 H 75.028269 46.68006 Z"
       id="path4737-0"
       inkscape:connector-curvature="0" />
  </g>
  <g
     inkscape:groupmode="layer"
     id="layer2"
     inkscape:label="Right Arrow">
    <path
       style="fill:#000000;stroke:#000000;stroke-width:0.26458332px;stroke-linecap:butt;stroke-linejoin:miter;stroke-opacity:1"
       d="m 134.35514,26.272845 h 28.34821 l -3.40179,-3.59078 0.37798,7.37054 3.02381,-3.77976 h -28.34821 28.34821 z"
       id="path4737-1"
       inkscape:connector-curvature="0" />
    <path
       style="fill:#000000;stroke:#000000;stroke-width:0.26458332px;stroke-linecap:butt;stroke-linejoin:miter;stroke-opacity:1"
       d="m 134.35514,114.62648 h 28.34821 l -3.40179,-3.59078 0.37798,7.37054 3.02381,-3.77976 h -28.34821 28.34821 z"
       id="path4737-1-2"
       inkscape:connector-curvature="0" />
    <path
       style="fill:#000000;stroke:#000000;stroke-width:0.26458332px;stroke-linecap:butt;stroke-linejoin:miter;stroke-opacity:1"
       d="m 104.51042,210.63244 h 28.34821 l -3.40179,-3.59078 0.37798,7.37054 3.02381,-3.77976 h -28.34821 28.34821 z"
       id="path4737-1-3"
       inkscape:connector-curvature="0" />
    <path
       style="fill:none;stroke:#000000;stroke-width:0.26458332px;stroke-linecap:butt;stroke-linejoin:miter;stroke-opacity:1"
       d="M 9.8273805,37.141351 H 20.221726 14.930059 V 114.62648 H 20.221726 9.8273805 14.930059 V 37.141351 Z"
       id="path4837"
       inkscape:connector-curvature="0" />
    <path
       style="fill:none;stroke:#000000;stroke-width:0.26458332px;stroke-linecap:butt;stroke-linejoin:miter;stroke-opacity:1"
       d="M 9.8273805,219.51488 H 20.221726 14.930059 v -104.8884 104.8884 z"
       id="path4839"
       inkscape:connector-curvature="0" />
    <path
       style="fill:none;stroke:#000000;stroke-width:0.26458332px;stroke-linecap:butt;stroke-linejoin:miter;stroke-opacity:1"
       d="M 9.8273805,119.1622 H 20.221726 Z"
       id="path4841"
       inkscape:connector-curvature="0" />
    <text
       xml:space="preserve"
       style="font-style:normal;font-weight:normal;font-size:10.58333302px;line-height:1.25;font-family:sans-serif;letter-spacing:0px;word-spacing:0px;fill:#000000;fill-opacity:1;stroke:none;stroke-width:0.26458332"
       x="19.459148"
       y="67.058746"
       id="text4845"><tspan
         sodipodi:role="line"
         id="tspan4843"
         x="19.459148"
         y="67.058746"
         style="stroke-width:0.26458332;letter-spacing:0px;font-size:5.29166667px">d = 6.635[cm]</tspan></text>
    <text
       xml:space="preserve"
       style="font-style:normal;font-weight:normal;font-size:10.58333302px;line-height:1.25;font-family:sans-serif;letter-spacing:0px;word-spacing:0px;fill:#000000;fill-opacity:1;stroke:none;stroke-width:0.26458332"
       x="32.883926"
       y="154.31398"
       id="text4849"><tspan
         sodipodi:role="line"
         id="tspan4847"
         x="32.883926"
         y="163.96948"
         style="stroke-width:0.26458332" /></text>
    <text
       xml:space="preserve"
       style="font-style:normal;font-weight:normal;font-size:5.29166651px;line-height:1.25;font-family:sans-serif;letter-spacing:0px;word-spacing:0px;fill:#000000;fill-opacity:1;stroke:none;stroke-width:0.26458332"
       x="20.221727"
       y="119.1622"
       id="text4853"><tspan
         sodipodi:role="line"
         id="tspan4851"
         x="20.221727"
         y="119.1622"
         style="stroke-width:0.26458332">d = 1.050[cm]</tspan></text>
    <text
       xml:space="preserve"
       style="font-style:normal;font-weight:normal;font-size:5.29166651px;line-height:1.25;font-family:sans-serif;letter-spacing:0px;word-spacing:0px;fill:#000000;fill-opacity:1;stroke:none;stroke-width:0.26458332"
       x="20.221727"
       y="160.5506"
       id="text4857"><tspan
         sodipodi:role="line"
         id="tspan4855"
         x="20.221727"
         y="160.5506"
         style="stroke-width:0.26458332">d = 8.030[cm]</tspan></text>
    <text
       xml:space="preserve"
       style="font-style:normal;font-weight:normal;font-size:10.58333302px;line-height:1.25;font-family:sans-serif;letter-spacing:0px;word-spacing:0px;fill:#000000;fill-opacity:1;stroke:none;stroke-width:0.26458332"
       x="75.028267"
       y="123.8869"
       id="text3939"><tspan
         sodipodi:role="line"
         id="tspan3937"
         x="75.028267"
         y="133.5424"
         style="stroke-width:0.26458332"></tspan></text>
    <text
       xml:space="preserve"
       style="font-style:normal;font-weight:normal;font-size:10.58333302px;line-height:1.25;font-family:sans-serif;letter-spacing:0px;word-spacing:0px;fill:#000000;fill-opacity:1;stroke:none;stroke-width:0.26458332"
       x="82.209824"
       y="132.20238"
       id="text3943"><tspan
         sodipodi:role="line"
         id="tspan3941"
         x="82.209824"
         y="132.20238"
         style="stroke-width:0.26458332;fill:#0000ff">Slit</tspan></text>
    <text
       xml:space="preserve"
       style="font-style:normal;font-weight:normal;font-size:10.58333302px;line-height:1.25;font-family:sans-serif;letter-spacing:0px;word-spacing:0px;fill:#000000;fill-opacity:1;stroke:none;stroke-width:0.26458332"
       x="82.209824"
       y="236.33481"
       id="text3947"><tspan
         sodipodi:role="line"
         id="tspan3945"
         x="82.209824"
         y="236.33481"
         style="stroke-width:0.26458332;fill:#0000ff">CCD</tspan></text>
    <text
       xml:space="preserve"
       style="font-style:normal;font-weight:normal;font-size:10.58333302px;line-height:1.25;font-family:sans-serif;letter-spacing:0px;word-spacing:0px;fill:#000000;fill-opacity:1;stroke:none;stroke-width:0.26458332"
       x="81.932007"
       y="50.499889"
       id="text3951"><tspan
         sodipodi:role="line"
         id="tspan3949"
         x="81.932007"
         y="50.499889"
         style="stroke-width:0.26458332;fill:#0000ff">Lasers</tspan></text>
    <text
       xml:space="preserve"
       style="font-style:normal;font-weight:normal;font-size:10.58333302px;line-height:1.25;font-family:sans-serif;letter-spacing:0px;word-spacing:0px;fill:#000000;fill-opacity:1;stroke:none;stroke-width:0.26458332"
       x="74.677292"
       y="15.254752"
       id="text3955"><tspan
         sodipodi:role="line"
         id="tspan3953"
         x="74.677292"
         y="15.254752"
         style="font-size:4.93888903px;stroke-width:0.26458332">650[nm]</tspan></text>
    <text
       xml:space="preserve"
       style="font-style:normal;font-weight:normal;font-size:6.3499999px;line-height:1.25;font-family:sans-serif;letter-spacing:0px;word-spacing:0px;fill:#000000;fill-opacity:1;stroke:none;stroke-width:0.26458332"
       x="97.10305"
       y="15.284122"
       id="text3959"><tspan
         sodipodi:role="line"
         id="tspan3957"
         x="97.10305"
         y="15.284122"
         style="font-size:4.93888903px;stroke-width:0.26458332">532[nm]405[nm]</tspan></text>
  </g>
</svg>
